<svg height="46" viewBox="0 0 144 46" width="144" xmlns="http://www.w3.org/2000/svg"><path d="m78.7117241 6.20595257c1.9602759 4.24543413 2.2306207 9.73701153 2.2306207 15.03705163 0 5.4413372-2.707862 11.2656943-7.8284138 16.8440005-3.7875862 4.126178-7.5332413 6.6675926-7.6915862 6.7745982l-.9081379.6120813-.9086897-.6120813c-.1583448-.1070056-3.9051034-2.6484202-7.6926896-6.7745982-5.1218759-5.5783062-7.8276966-11.4026633-7.8276966-16.8440005 0-4.9736705.2773518-10.6536076 2.3319173-15.04795436l.454731-.97352035 1.0790621.04383005c.1892414.00860165.3842758.01287508.578262.01287508.9665656 0 1.9648552-.09631655 2.9666207-.28571718 4.1859311-.78866709 7.2005518-3.05824223 7.3897931-4.6836799l3.2231725.01177933c.1671724 1.49805656 3.0195862 3.68314927 7.3324137 4.60018364 1.1144828.23755891 2.220138.35743411 3.2888276.35743411.1533793 0 .3062069-.00109575.4557242-.00854686l1.0769655-.03533798zm-6.8474482 30.74678503c4.8314482-5.2626202 7.3853793-10.6943148 7.3853793-15.7097334 0-5.0110904-.24-10.1898308-1.9790345-14.12209919l-.0733793-.16589677-.4673104.00427343c-1.1823448 0-2.4088276-.13264071-3.6435862-.39485402-3.6728276-.78006544-6.7531034-2.48253444-8.0369655-4.44288853l-.0816552-.12414863-.9417931-.00323247-.0822069.12628535c-1.3346207 2.06631326-4.5268965 3.84263589-8.131862 4.52424807-1.2551724.23520304-2.5187311.33579302-3.6998069.30927584l-.1838345-.00427343-.0747586.16693773c-1.8286897 4.07844162-2.0754207 9.42877662-2.0754207 14.12637262 0 5.0154186 2.5538758 10.4481542 7.3855448 15.7097334 3.1641379 3.4466752 6.304 5.7516047 7.1911724 6.3765282l.1594483.1123583.1594483-.1123583c.8893793-.6270602 4.035862-2.9394847 7.1906207-6.3765282zm4.9732413-29.44662118c1.6325518 3.82055648 1.8604138 8.85630138 1.8604138 13.73688778 0 4.876313-2.5037241 10.1806813-7.2413793 15.34052-2.9511724 3.2155921-5.891862 5.4327629-6.9423448 6.1850237-1.0488276-.7501186-3.984-2.9608847-6.9428966-6.1850237-4.7372689-5.1587978-7.2415448-10.4631113-7.2415448-15.34052 0-4.575584.2338207-9.7729522 1.9547035-13.73798353 1.1788689.0150118 2.401931-.09094737 3.6305655-.32209613 3.6744827-.69574737 6.9511724-2.5082298 8.4093793-4.63979505l.345931.00104096c1.4212414 2.05349296 4.5086897 3.75064756 8.3006897 4.55640837 1.2728276.26960964 2.5373793.4059759 3.7588965.4059759zm-10.2642758 30.63222418c2.9765517-2.6687573 5.0002758-6.1957072 5.2987586-10.8751137-.0993103-4.2470778-1.8753103-7.3717225-4.7834483-9.7547627 5.8118621-3.784835 2.4275862-10.46891873-2.4617931-10.46891873-5.0995862 0-8.0761379 7.17311753-2.4286896 10.51707693-2.9037242 2.4172825-4.5859311 5.4327356-4.6852414 9.6787724.2995862 4.6794613 2.1798621 8.2887569 5.1332414 10.9414615l1.9691034-2.5317884zm-2.1506207-19.3575447c-.5097931-.9994348-1.3732414-1.8951021-2.0689655-2.8175056-.166069-.2246838-.2824828-.9234445.2366896-.7361806.3437242.1262306.7470345.2193694 1.1227586.0824005.288-.1048634.7415173-.0770861.7415173.3017152v2.2846417c0 .2321897.0336552.6987607-.032.8849288zm-.3933793-5.5311888-.6251035-.1198752.0226207.7351396-.5202758-.5874323-.3657931.6537801-.0893794-.6987607-.7337931.2097816.486069-.6266602-.6024828-.3728295.6747587-.0988367-.2206897-.6645185.601931.3792396.2267587-.6762978.2714482.6484657.6251035-.4012642-.2935172.6424391.7188965.1097943-.6466207.3466957zm3.5233103 0-.6245517-.1198752.0215172.7351396-.5197241-.5874323-.3652414.6537801-.0882758-.6987607-.736.2097816.4871724-.6266602-.6035862-.3728295.6747586-.0988367-.2212414-.6645185.6035862.3792396.2262069-.6762978.2714483.6484657.6251034-.4012642-.2929655.6424391.7188966.1097943-.6466207.3466957zm-.6686896 2.6751675c-.6984828.9224036-1.5608276 1.8180708-2.0689655 2.8175057-.0673104-.186223-.0336552-.6538349-.0336552-.8838879v-2.2845869c0-.3798971.4535172-.4066334.7415172-.3028657.3757242.1380646.780138.0438848 1.1227586-.0813048.5202759-.1872639.4038621.5093601.2383449.7351396zm1.1277241 12.1217502c-.2929655.5221803-.8187586.8078975-1.1613793 1.1813844-.6366897.6816122-.8794483 1.1096127-.9517241 1.6970998-.7624828-1.372867-2.2896552-5.4102727 1.9972413-10.0682572-.6587586 1.2637301-1.1674482 2.3894504-1.2557241 3.5108972-.0496552.6634227.1335172 1.1963414.470069 1.8009222.4651034.5157702 1.0615172 1.142814.9015172 1.8779536zm-4.6626207 2.9608847c-.144-.5660652-.3878621-1.1535523-1.0129655-1.7741859-.4148966-.4173169-1.0891034-.7682861-1.254069-1.2305837-.1053793-.5275495.5246897-1.0871497.9506207-1.7249318.3702069-.5542859.6019311-1.2017106.5246897-1.9550397-.1324138-1.2027516-.5754483-2.1529872-1.2998621-3.3450004 4.2924138 3.548317 2.9484138 8.7007046 2.0915862 10.0297415zm5.9288276-.6152644c-.0546207.7083485.0176552 1.6254377-.5969655 1.5933321-.2703448-.0107383-.5417931-.3349712-1.1056552-.3520649-.326069.0117793-.6863448.0770313-1.0124138.1872639-.5037241.1754846-.1114483-1.472416.7249655-2.1208817.1489656-.1091368.6129656-.3895396 1.1376552-1.169605.2394483-.3509692.3216552-.3456.4496552.1209161.2598621.6591493.2973793.9887513.4027586 1.7410395zm-6.6482759 1.5269844c-.3255172-.1091916-.6857931-.1765804-1.011862-.186223-.5638621.0160528-.8353104.3402856-1.1067586.3509692-.6135173.0332013-.5412414-.8838331-.5969656-1.5922364.1053793-.7533291.144-1.0829311.4038621-1.7420804.1274483-.4665709.2102069-.4718853.4474483-.1198204.5257931.7789697.9903448 1.0593725 1.139862 1.1695503.8353104.6474247 1.2286897 2.2953253.7244138 2.1198407zm5.3434483 1.7463538c-.3371034-.2953598-.7746207-.608909-1.056-.9277727-.1776552-.1979475.0777931-.4782955.3415173-.4943483.371862-.0267911.6973793.0160528 1.1122758.1315998.7531035.2086858-.137931.7361806-.3977931 1.2905212zm-5.6971034-.9448664c-.448.445149-.7133793.8742452-.9782069.9780129-.2383449-.510401-1.196138-1.1696051-.4496552-1.2241735.4601379-.0331465.6488276-.1925783.9633103-.2257796.3762759-.0438848.7911725.1487483.4645518.4719402zm81.4559999-20.252171c-.507586.0332013-.910896.481528-.910896 1.0369096 0 .5542858.40331 1.0026673.910896 1.0358138v1.0550991c-.507586.0331464-.910896.4826237-.910896 1.0369095 0 .5542859.40331 1.0037083.910896 1.0369096v1.0550443c-.507586.0332012-.910896.4815279-.910896 1.0358686 0 .5542858.40331 1.0037083.910896 1.0368548v1.055099c-.500414.0321055-.896552.4687077-.90869 1.01231.012138.5436023.408276.9801496.90869 1.0122551v1.0561948c-.507586.0331465-.910896.481528-.910896 1.0358139 0 .5542858.40331 1.0037083.910896 1.0369095v1.0550443c-.507586.0332013-.910896.4826237-.910896 1.0369096 0 .5542858.40331 1.0026673.910896 1.0358686v1.05614c-.507586.0321055-.910896.481528-.910896 1.0358138 0 .5542859.40331 1.0037083.910896 1.0369096v1.055099c-.461241.0299688-.833103.4044967-.896552.8892023h-66.6206893c3.465931-4.6719005 5.2794483-9.4412134 5.2794483-13.9644205 0-3.6799716-.1302069-7.4519315-.8595862-10.860102h62.1864832c.00331.5514917.405517.9972982.910896 1.0304447zm-6.500414 8.5990737v-.2075901c-.364138 0-.507034-.1754846-.507034-.5703386v-2.6741266c0-1.4574042-.596414-1.8308911-1.457104-1.8308911-.551724 0-1.213241.2964556-1.457103.9545091h-.021517l.021517-1.1182143c-.627862.2514749-1.35669.4269595-1.941517.5478757v.2086858c.264827 0 .507586.065252.507586.5039909v3.2990336c0 .5917606-.187586.6794755-.486069.6794755v.2075901c.408276-.0331465.816552-.065252 1.292138-.065252.408276 0 .815448.0321055 1.223724.065252v-.2075901c-.231724 0-.529103-.0877149-.529103-.4718854v-2.3456203c0-.4815279.177103-1.0957514.684689-1.0957514.353104 0 .661517.1423381.661517.8988997v3.2219475c.32-.0331465.64-.065252 1.004138-.065252.353656 0 .673656.0321055 1.004138.065252zm-4.142896 2.7383376v-.4387389h-1.192828c.066759.3402856.132414.7565068.132414.9972982 0 .8003916-.308414 1.3151208-.308414 1.4135741 0 .0331465.065655.0877149.09931.0877149.109794 0 1.269518-.5917058 1.269518-2.0598483zm-1.88138-2.7383376v-.2075901c-.352551 0-.573793-.1540627-.573793-.5264538v-2.6409253c0-1.5783751-1.103448-1.9079772-2.384551-1.9079772-.749794 0-1.389794.1541175-1.985656.3617076l-.044689 1.4906054h.209103c.397793-.7993506.817104-1.0187201 1.700414-1.0187201.529103 0 1.00469.2075901 1.00469.7672452 0 .3392446-.077793.3723911-1.092966.4933073-.970483.1198752-2.417103.2846214-2.417103 1.7645433 0 .9534133.673655 1.5344903 1.622069 1.5344903.949517 0 1.446069-.1315998 1.997793-.9320462l.02262-.0106836v.8324972c.331035-.0331465.661518-.065252.96-.065252.32 0 .651035.0321055.982069.065252zm-4.08331-1.522711c0-.5157702.385655-.7789697 2.008828-1.041183v.5147293c0 .6902138-.695173 1.1942046-1.22538 1.1942046-.441931 0-.783448-.230053-.783448-.6677509zm1.34069 10.9468307c.949517 0 2.427586-.3402856 2.427586-1.7431214 0-1.0957514-.73931-1.4243124-1.478069-1.6104806-.73931-.1872639-1.478621-.2311488-1.478621-.7565616 0-.3723363.463449-.5157702.827586-.5157702.705656 0 1.324138.2311488 1.589518.9106242h.209103c-.033655-.4825689-.055172-.9651926-.09931-1.4691835-.419311-.1315997-.882759-.2086858-1.347311-.2086858-1.368275 0-2.548413.4494772-2.548413 1.787061 0 .9758762.73931 1.2819196 1.47862 1.4574042.739311.1754845 1.478621.2193694 1.478621.7126767 0 .5039909-.507586.7340439-.926896.7340439-.793932 0-1.467587-.3948541-1.766069-1.1834664h-.209104c.021517.5039909.044138 1.0079818.065655 1.5120274.463449.1979475 1.059311.3734321 1.777104.3734321zm-2.569931-.1102326v-.2075901c-.36469 0-.507587-.1754846-.507587-.5703386v-2.6741266c0-1.4574042-.595862-1.830891-1.457103-1.830891-.551724 0-1.214345.2964555-1.457103.954509h-.022621l.022621-1.1182143c-.628966.251475-1.357794.4269595-1.942621.5478757v.2086859c.264827 0 .507586.065252.507586.5039908v3.2990337c0 .5917605-.187586.6794754-.484965.6794754v.2075901c.408275-.0331465.816551-.065252 1.291034-.065252.408276 0 .816552.0321055 1.225379.065252v-.2075901c-.231724 0-.530207-.0877149-.530207-.4718853v-2.3456203c0-.481528.176552-1.0957515.684138-1.0957515.353104 0 .662621.1423382.662621.8988997v3.2219475c.32-.0331465.64-.065252 1.004138-.065252.353655 0 .673655.0321055 1.00469.065252zm-6.407724-10.7381448c0 .9534133.673655 1.5344903 1.623172 1.5344903.948965 0 1.446069-.1315998 1.997793-.9320462l.021517-.0106836v.8324972c.330483-.0331465.662621-.065252.96-.065252.32 0 .652138.0321055.982621.065252v-.2075901c-.353103 0-.574345-.1540627-.574345-.5264538v-2.6409253c0-1.5783751-1.103448-1.9079772-2.383448-1.9079772-.750897 0-1.390897.1541175-1.98731.3617076l-.044138 1.4906054h.210207c.397793-.7993506.817103-1.0187201 1.69931-1.0187201.530207 0 1.00469.2075901 1.00469.7672452 0 .3392446-.07669.3723911-1.092966.4933073-.971034.1198752-2.417103.2846214-2.417103 1.7645433zm2.284689.5692976c-.440827 0-.783448-.230053-.783448-.6677509 0-.5157702.386759-.7789697 2.008828-1.041183v.5147293c0 .6902138-.695173 1.1942046-1.22538 1.1942046zm-2.023724 7.6809436v-.4055376c0-1.457459-1.05931-2.3895051-2.615172-2.3895051-1.612138 0-2.726621 1.1514156-2.726621 2.6527046 0 1.8854595 1.32469 2.7404743 2.958345 2.7404743.69462 0 1.490207-.1315997 2.063448-.5917605l.187586-1.041183c-.529103.3723911-1.302069.6677509-1.865379.6677509-.760828 0-1.777103-.4055924-1.777103-1.6329436zm-2.648828-1.896143c.662621 0 1.081932.3616527 1.081932 1.0636459h-2.163863c0-.7019932.420414-1.0636459 1.081931-1.0636459zm-3.993379.7565067c0-.230053-.066758-.4933073-.176552-.690159l.705656-.0438848.242207-.8004465c-.363035.0663478-.793932.120971-1.080828.120971-.485517 0-1.258483-.2418871-1.875862-.2418871-1.368276 0-2.372966.6035399-2.372966 1.830891 0 .4055924.176.9427298.606897 1.2819744l-.839724.394854c-.231724.1091369-.307862.4055376-.307862.6142235 0 .7233603.473931 1.2273512 1.743448 1.2273512.341517 0 .673655-.0224629 1.170207-.0224629 1.03669 0 1.444965.1102326 1.444965.5917605 0 .4280005-.540689.7126768-1.269517.7126768-.760827 0-1.015172-.3831295-1.015172-.6687919 0-.1755394 0-.3071392.055172-.4376979l-1.345655.3499282c-.044138.1315997-.077793.2525159-.077793.3841704 0 .6355906.861241 1.0732886 1.98731 1.0732886 1.544828 0 3.034483-.6570674 3.034483-1.8951021 0-.8988997-.73931-1.3814687-2.064-1.3814687h-1.37931c-.894345 0-1.048276-.1423381-1.048276-.3509691 0-.1091917.065655-.2739379.331034-.3499283.176552.0759904.44138.1744437 1.147586.1744437 1.191725 0 2.384552-.5040457 2.384552-1.873735zm-2.285793-.8881613c.50869 0 .916966.351024.916966 1.0529624 0 .4601608-.264828.8763819-.839173.8763819-.507586 0-.915862-.394854-.915862-.9972981 0-.6142235.364138-.9320462.838069-.9320462zm-3.265103-.04383c.09931-.3060434.154482-.3831295.463448-.4055924v-.2075901c-.298483.0332012-.618483.0653067-.926345.0653067-.320552 0-.629517-.0321055-.949517-.0653067v.2075901c.32.0117793.496552.1316545.496552.4055924 0 .1209161-.110897.4718853-.22069.8988449l-.507586 1.9068814h-.022621l-.794483-2.3124738c-.110896-.3059886-.176551-.5478757-.176551-.6355907 0-.2632542.32-.2407913.507586-.2632542v-.2075901c-.429793.0332012-.871724.0653067-1.302621.0653067-.440828 0-.871724-.0321055-1.291034-.0653067v.2075901c.254344.0663477.353103.143379.441931.3509692l1.566344 3.8469093c.210207.5040456.309518.7233603.309518.8335929 0 .3392446-.386759.7554658-.926897.7554658-.331586 0-.486069-.2621585-.519172-.5478757h-.209104l.065655 1.5569532c.187587.1423381.419311.2183285.651035.2183285.706759 0 1.357793-.4601609 1.942621-2.2792726zm-4.965518 4.5595312v-.2075901c-.364138 0-.507586-.1754846-.507586-.5703386v-3.999931c0-.1979475.011035-.394854.055173-.6687919-.739311.2846214-1.401931.4708444-2.041931.5478757v.2086859c.231724-.0224629.486069.1091368.486069.5254128v2.1261961c0 .6581083-.331035.9866145-.7834488.9866145-.3977931 0-.5302069-.2739378-.563862-.6687918v-3.0572013c0-.1979475.0121379-.394854.0562758-.6687919-.7404138.2846214-1.401931.4708444-2.0645517.5478757v.2086859c.2543448-.0224629.5075862.1091368.5075862.5254128v2.5542513c0 1.3696893.6626207 1.7206585 1.5343448 1.7206585.7939307 0 1.3136557-.4718853 1.4460687-1.1514156h.021518l-.032552 1.041183c.364689-.0331465.651034-.065252.882758-.065252.353656 0 .673656.0321055 1.004138.065252zm-5.5889651-9.5214772c-.2317242 0-.5302069-.0877149-.5302069-.4718854v-2.4108723c0-.4826237.1108965-1.0304994.6841379-1.0304994.3531034 0 .6626207.1423381.6626207.8988997v3.2219475c.32-.0331465.64-.065252 1.0041379-.065252.3536552 0 .6736552.0321055 1.0046897.065252v-.2075901c-.3646897 0-.5075862-.1754846-.5075862-.5703386v-2.6741266c0-1.4574042-.5958621-1.8308911-1.4675862-1.8308911-.2758621 0-.5638621.0663478-.806069.1980023-.2317241.1315998-.4314483.3285063-.5517241.5917606h-.0226207v-2.663443c0-.3178227.0331034-.6249071.0331034-.9095285-.6841379.3070844-1.3682758.5264538-2.041931.6024442v.208631c.3310345.0770861.5075862.1091917.5075862.9095833v5.4584309c0 .5917606-.1875862.6794755-.5075862.6794755v.2075901c.4308965-.0331465.8391724-.065252 1.3136552-.065252.4082758 0 .8165517.0321055 1.2253793.065252zm-.6670345 2.6495269v-.2076449c-.4849655.0321056-.9164138.0653068-1.3246897.0653068-.4082758 0-.8380689-.0332012-1.3241379-.0653068v.2076449c.3757241.0117246.5075862.1540627.5075862.4612018v2.1689852h-2.6703448v-2.1689852c0-.3071391.1324138-.4494772.5075862-.4612018v-.2076449c-.486069.0321056-.9158621.0653068-1.3246897.0653068-.4082758 0-.8380689-.0332012-1.3241379-.0653068v.2076449c.3751724.0117246.5075862.1540627.5075862.4612018v5.7419566c0 .3071392-.1324138.4494225-.5075862.4612018v.2075901c.486069-.0331465.9158621-.065252 1.3241379-.065252.4088276 0 .8386207.0321055 1.3246897.065252v-.2075901c-.3751724-.0117793-.5075862-.1540626-.5075862-.4612018v-2.5200091h2.6703448v2.5200091c0 .3071392-.1318621.4494225-.5075862.4612018v.2075901c.486069-.0331465.9158621-.065252 1.3241379-.065252.4082759 0 .8397242.0321055 1.3246897.065252v-.2075901c-.3751724-.0117793-.5075862-.1540626-.5075862-.4612018v-5.7419566c0-.3071391.1324138-.4494772.5075862-.4612018zm-8.6135173-5.9485605c0 1.8629966 1.3462069 3.6821083 3.7307587 3.6821083.64 0 1.6215172-.2086311 2.3062069-.7233603l.1213793-1.1727828c-.5958621.4933073-1.4791724.7779288-2.0965518.7779288-1.4571034 0-2.4948965-1.4028358-2.4948965-2.6409253 0-1.6436272.9710345-2.6195034 2.2295172-2.6195034.9268966 0 1.6446897.4825689 1.8212414 1.3921522h.2102069c-.0562759-.7126767-.0667586-1.4253535-.0667586-2.1701357-.2532414-.0984533-.9268966-.2739379-1.8322759-.2739379-2.5826207 0-3.9288276 1.8416294-3.9288276 3.7484561zm-1.104-1.0090775c-.0656551-.3391899-.1324138-.7554658-.1324138-.9972982 0-.7993506.3095173-1.3151208.3095173-1.4135741 0-.0331465-.0662069-.0877149-.0993104-.0877149-.1097931 0-1.2695172.5917606-1.2695172 2.0609441v.4376431zm13.9812419-.3830747v.2086858c.265379 0 .507586.065252.507586.5039909v3.2990336c0 .5917606-.187586.6794755-.486069.6794755v.2075901c.408276-.0331465.817103-.065252 1.292138-.065252.463448 0 .904276.0321055 1.345655.065252v-.2075901c-.242207-.0224629-.650483-.1433791-.650483-.4280005v-2.2139658c0-.5692976.264828-1.2712908.926345-1.2712908.408828 0 .618483.164801.795586.5265086h.120828l-.066207-1.6329436c-.155035-.0331465-.32-.0556642-.386759-.0556642-.551724 0-1.213241.2964556-1.456552.9545091h-.021517l.021517-1.1182143c-.628413.2514749-1.356689.4269595-1.942068.5478757zm4.182068 4.6911858v.2075901c.440828-.0331465.849104-.065252 1.269518-.065252.408276 0 .827586.0321055 1.246896.065252v-.2075901c-.231724 0-.507586-.0438849-.507586-.5371922v-4.7018693c-.441931.230053-1.280552.4601608-2.008828.5478757v.2086858c.26538 0 .507587.065252.507587.5039909v3.4959402c0 .4055376-.32.4825689-.507587.4825689zm1.147587-7.2015523c-.54069 0-.838069.394854-.838069.8881613 0 .5264538.364138.8656984.893241.8656984.496552 0 .806069-.3831295.806069-.8550148 0-.5254128-.298483-.8988449-.861241-.8988449zm4.479448 2.126196c-1.368276 0-2.548414.4494773-2.548414 1.787061 0 .9758763.739311 1.2819196 1.478621 1.4574042s1.478621.2193695 1.478621.7126768c0 .5039908-.507587.7340438-.926897.7340438-.794483 0-1.467586-.394854-1.766069-1.1834663h-.209103c.021517.5039909.044138 1.0079817.065655 1.5120274.463448.1979475 1.05931.3734321 1.777103.3734321.948966 0 2.427586-.3402856 2.427586-1.7431214 0-1.0957514-.73931-1.4243125-1.47862-1.6104806-.738759-.187264-1.478069-.2311488-1.478069-.7565616 0-.3723363.463448-.5157702.827586-.5157702.705655 0 1.324138.2311488 1.589517.9106242h.208552c-.033104-.4825689-.054621-.9651926-.098759-1.4691835-.41931-.1315997-.882758-.2086859-1.34731-.2086859zm2.251034.1102326v.8324972h.595863v2.7950427c0 .81113.231724 1.6554065 1.566896 1.6554065.431448 0 .817104-.0877697 1.14869-.2525159l.120827-.9534681c-.176551.1423381-.397793.2407913-.661517.2407913-.420414 0-.673655-.2407913-.673655-.81113v-2.6741265h1.202759v-.8324972h-1.202759v-1.5997423h-.286345c-.32.3499283-.806069.7008974-1.214896.8656985v.7340438zm3.763311 4.9651237v.2075901c.440827-.0331465.849103-.065252 1.269517-.065252.408276 0 .827586.0321055 1.246345.065252v-.2075901c-.231724 0-.507586-.0438849-.507586-.5371922v-4.7018693c-.44138.230053-1.28.4601608-2.008276.5478757v.2086858c.264827 0 .507586.065252.507586.5039909v3.4959402c0 .4055376-.32.4825689-.507586.4825689zm1.147586-7.2015523c-.541241 0-.838621.394854-.838621.8881613 0 .5264538.364138.8656984.893242.8656984.497103 0 .806069-.3831295.806069-.8550148 0-.5254128-.298483-.8988449-.86069-.8988449zm-70.0345931 7.584627c0 4.5242481 1.8129103 9.2935609 5.2786759 13.9644205h-51.92846349c-.06357517-.4793912-.4284469-.8517823-.88361931-.8881613v-1.0582767c.50107752-.0396114.89762759-.4847604.89762759-1.0347729 0-.5489167-.39655007-.9940657-.89762759-1.0347728v-1.0582768c.50107752-.0406523.89762759-.4858014.89762759-1.0347728 0-.5500125-.39655007-.9951615-.89762759-1.0358138v-1.0582768c.50107752-.0396114.89762759-.4847604.89762759-1.0347728 0-.5489715-.39655007-.9941205-.89762759-1.0347729v-1.0582767c.49353435-.0396114.88361931-.4729811.89547586-1.0112142-.01185655-.5382331-.40194151-.9716576-.89547586-1.0112142v-1.0572358c.50107752-.0406524.89762759-.4858014.89762759-1.0358138 0-.5489715-.39655007-.9941205-.89762759-1.0347729v-1.0583315c.50107752-.0395566.89762759-.4858014.89762759-1.0347181 0-.5500124-.39655007-.9951614-.89762759-1.0347728v-1.0582768c.50107752-.0407071.89762759-.4858561.89762759-1.0347728 0-.5500124-.39655007-.9951615-.89762759-1.0352112v-1.0584959c.49892248-.0399949.89331862-.4819662.89655172-1.0287462h47.56099308c-.7862069 3.5248132-.9241379 7.3652576-.9241379 10.860102zm-1.8814897 9.8895949c0-.3039066-.0275862-.8624659-.0275862-1.2198453v-.8089932c0-.4280553.153269-.6238661.153269-.6944873 0-.0213671-.0275862-.0374199-.0491586-.0481583l-.4260966-.1583361c-.0167724-.0053691-.0383448-.0107383-.0551724-.0107383-.0762483 0-.1745655.2065491-.190731.2557484-.1038345-.086674-.2622345-.2557484-.6502069-.2557484-.6504276 0-1.0327173.5425613-1.0327173 1.4168066 0 .8132119.3225931 1.3236677.9340138 1.3236677.3718069 0 .5793104-.1519807.6612414-.2065491 0 .0385156.0165517.1680334.0165517.358475 0 .3039067-.0654896.4612018-.4482758.4612018-.485738 0-.8193655-.2118635-.8851311-.2118635-.0269241 0-.0488827.0160527-.0599172.0545684l-.1038345.330643c-.0161655.049254-.0215724.0706212-.0215724.1080959 0 .114506.7047172.2878539 1.1308138.2878539.7592828 0 1.0545103-.3905806 1.0545103-.9823412zm-1.5844413-1.5462148c0-.5200984.1422344-.8240051.4695724-.8240051.2457379 0 .3606069.1080959.4317241.1626643v1.2798377c-.0545655.0491992-.1859862.1850724-.4644414.1850724-.3276138 0-.4368551-.3092211-.4368551-.8035693zm-1.3778207 1.3022458v-1.903649c0-.6570126-.4101518-.7929405-.7107862-.7929405-.4314483 0-.6771311.2332855-.8355311.3745278-.0603586-.2546526-.1038896-.3745278-.1750069-.3745278-.0217931 0-.0491586.0053692-.0820965.0171485l-.4146759.1348322c-.0383448.0106836-.0605793.0331465-.0605793.0598828 0 .1252444.1041104.0813596.1041104.846468v1.638258c0 .0599376.0107586.0759903.0765241.0759903h.5409103c.0653242 0 .0765242-.0160527.0765242-.0759903v-1.903649c.0704551-.065252.2510896-.2226019.4806069-.2226019.2786758 0 .3060414.2493382.3060414.4558874v1.6703635c0 .0599376.0107586.0759903.0765241.0759903h.5409103c.0653242 0 .0765242-.0160527.0765242-.0759903zm-3.4806069-2.9566113c.2456827 0 .4476138-.20118.4476138-.4504634 0-.2493383-.2019311-.4451491-.4476138-.4451491-.2515311 0-.4536828.1958108-.4536828.4451491 0 .2492834.2021517.4504634.4536828.4504634zm.3497931 2.9566113v-2.5275151c0-.0599376-.0107586-.0759355-.0767448-.0759355h-1.0381242c-.0653241 0-.0765241.0159979-.0765241.0759355v.352065c0 .0599376.0112.0759903.0765241.0759903h.4209104v2.0994598c0 .0599376.0105379.0759903.0765241.0759903h.5406897c.0659862 0 .0767448-.0160527.0767448-.0759903zm-2.2618483-8.0159148c0 .5200984.2999724.8240051.7648552.8240051.4887724 0 .7764965-.3274654.8476138-.3916764.029131.0813048.134731.3916764.223062.3916764.0118621 0 .0237242-.006465.0474483-.0182443l.2295173-.1401466c.0237241-.0117793.0528-.0235587.0528-.0470625 0-.0342423-.0823173-.1455706-.1056-.2161918-.0528-.1637053-.0711173-.216137-.0711173-.5842547v-1.1449506c0-.4911706-.2295172-.8186359-.9062621-.8186359-.3760551 0-.9181241.1701702-.9181241.2696644 0 .0289279.0065104.0460216.0183172.0759904l.0765242.2043576c.0054069.0171485.0230621.0289279.0409379.0289279.0528 0 .3233104-.187264.7176828-.187264.4180965 0 .5236965.187264.5236965.5264538v.2097268c-.3641931.0117794-1.5413517.0299688-1.5413517 1.0176244zm.4411586-.0352832c0-.6142235.8416-.6142235 1.1001931-.6195927v.7533291c-.0937379.0824006-.3641931.3627486-.6702345.3627486-.3006344 0-.4299586-.2631995-.4299586-.496485zm.114869 8.295167c0-.3039066-.0275862-.8624659-.0275862-1.2198453v-.8089932c0-.4280553.1529931-.6238661.1529931-.6944873 0-.0213671-.0275862-.0374199-.0488828-.0481583l-.4263172-.1583361c-.0168276-.0053691-.0381242-.0107383-.0549517-.0107383-.0765242 0-.1745656.2065491-.1907311.2557484-.1041103-.086674-.2625103-.2557484-.6502069-.2557484-.6504276 0-1.0329931.5425613-1.0329931 1.4168066 0 .8132119.322869 1.3236677.9342897 1.3236677.3717517 0 .5793103-.1519807.6609655-.2065491 0 .0385156.0168276.1680334.0168276.358475 0 .3039067-.0657104.4612018-.4482759.4612018-.4860138 0-.8196414-.2118635-.885131-.2118635-.0269241 0-.0491586.0160527-.0599173.0545684l-.1041103.330643c-.0161655.049254-.0212965.0706212-.0212965.1080959 0 .114506.7044965.2878539 1.1308137.2878539.7590069 0 1.0545104-.3905806 1.0545104-.9823412zm-1.5847173-1.5462148c0-.5200984.1422345-.8240051.4698483-.8240051.2463449 0 .3603311.1080959.4314483.1626643v1.2798377c-.0542897.0491992-.1851034.1850724-.4644414.1850724-.3273379 0-.4368552-.3092211-.4368552-.8035693zm-1.5732413-7.2871853c0 .8539191.4062345 1.3975214 1.1060413 1.3975214.4353104 0 .9294897-.2396957.9294897-.3039067 0-.0181895-.0114207-.0299688-.0172138-.0471173l-.1002483-.24501c-.011862-.0181895-.0172138-.035338-.035531-.035338-.0349241 0-.3411862.2396956-.7230897.2396956-.5710896 0-.6766896-.5617917-.6766896-1.092519 0-.6666551.1702621-1.0936147.7467586-1.0936147.3476414 0 .6002207.2985375.6238897.2985375.017931 0 .0237241-.0181895.0355862-.035338l.1351172-.24501c.006069-.0181895.0178759-.0299688.0178759-.0471173 0-.0877149-.4536276-.3627485-.8476138-.3627485-.7234759 0-1.1943724.596034-1.1943724 1.571965zm-.2137931 5.6328198c.2456827 0 .4476138-.20118.4476138-.4504634 0-.2493383-.2019311-.4451491-.4476138-.4451491-.2517518 0-.4539035.1958108-.4539035.4451491 0 .2492834.2021517.4504634.4539035.4504634zm.3495724 2.9566113v-2.5275151c0-.0599376-.0108138-.0759355-.0765242-.0759355h-1.0381793c-.0652689 0-.0764689.0159979-.0764689.0759355v.352065c0 .0599376.0112.0759903.0764689.0759903h.4206897v2.0994598c0 .0599376.0108138.0759903.0765241.0759903h.5409655c.0657104 0 .0765242-.0160527.0765242-.0759903zm-1.4676966-7.3438905c0 .0460216.0237242.0695802.070069.0695802h.3059862c.0474483 0 .0711724-.0235586.0711724-.0695802v-2.6473354c0-.0524317-.0118621-.0877697-.0765241-.0877697h-.829738c-.0474482 0-.0711172.0235587-.0711172.0695802v.2225471c0 .0471173.023669.0695802.0711172.0695802h.4590345zm-.3301517 7.3438905v-1.903649c0-.6570126-.4101517-.7929405-.7107862-.7929405-.4314483 0-.6773517.2332855-.8358069.3745278-.0600828-.2546526-.1038345-.3745278-.1749517-.3745278-.0215724 0-.048938.0053692-.0819311.0171485l-.4148413.1348322c-.0384.0106836-.0603587.0331465-.0603587.0598828 0 .1252444.1041104.0813596.1041104.846468v1.638258c0 .0599376.0107586.0759903.0762483.0759903h.5409655c.0653241 0 .0767448-.0160527.0767448-.0759903v-1.903649c.0704552-.065252.2510897-.2226019.4806069-.2226019.2784552 0 .3060414.2493382.3060414.4558874v1.6703635c0 .0599376.0107586.0759903.0762483.0759903h.5411862c.0651034 0 .0765241-.0160527.0765241-.0759903zm-2.4601379-9.7868683c0 .0289279 0 .0695802.0413793.0695802h.4413793v1.6596799c0 .216137 0 .4793913.1707034.6602451.0883311.1112735.2995311.2054534.5527725.2054534.3179034 0 .7592827-.1637601.7592827-.2396957 0-.0182442-.006069-.035338-.0118621-.0588966l-.0648827-.216137c0-.0171485-.0176552-.035338-.0413793-.035338-.0528 0-.2877242.1583909-.5646345.1583909-.3530483 0-.3530483-.2396956-.3530483-.4740221v-1.6596799h.7765517c.0355311 0 .0646069-.0224629.076469-.0524317l.0765241-.2279163c0-.0171485.0064552-.0289278.0064552-.0407071 0-.0352832-.0297379-.0406524-.0646621-.0406524h-.8713379v-.8999407c0-.0352831 0-.0641562-.0295172-.0641562-.0118621 0-.023669.0053144-.040938.0053144l-.3118344.0877697c-.0416.0117793-.0646621.0352832-.0646621.0706212v.8003916h-.4413793c-.0413793 0-.0413793.0289278-.0413793.0695802zm-.3347311-3.5419069h.3060414c.0470069 0 .0707311-.0235586.0707311-.0706212v-1.9400279c0-.4205494-.0470069-.8764367-.7006897-.8764367-.4469517 0-.7529931.2450648-.9472.3970455-.0057931-.0460216-.0762483-.3970455-.1825103-.3970455-.017269 0-.0355863.0171485-.0470069.0235586l-.2644414.1455158c-.023669.0181895-.029738.0299688-.029738.0417481 0 .0288731.0470069.0695802.0944.2450648.0232828.0877149.0232828.151926.0232828.3445591v2.0160182c0 .0470626.0237241.0706212.0704552.0706212h.3060414c.0474482 0 .0711172-.0235586.0711172-.0706212v-2.0684499c.1465931-.1284221.3939862-.3563384.7764965-.3563384.3172414 0 .3823449.2215062.3823449.4729811v1.9518072c0 .0470626.0232827.0706212.0706758.0706212zm-.2392275 12.2490765c.1038896 0 .1261241-.0321055.1261241-.1348322 0-.6570126-.164469-1.4820586-1.0926897-1.4820586-.7323034 0-1.1967448.5971297-1.1967448 1.4595957 0 .9983939.5027862 1.4049725 1.223669 1.4049725.4315034 0 .9780414-.1786623.9780414-.3199047 0-.0214219-.0056276-.0428439-.0161656-.0588966l-.1371034-.3263696c-.0107586-.0213671-.0322759-.0427891-.0596966-.0427891-.0764689 0-.3006344.1787171-.6939586.1787171-.5133241 0-.6006069-.3745279-.6006069-.6784345zm-1.0046897-1.0972279c.3764965 0 .3931034.3759734.3931034.593237h-.8575448c.0161655-.148336.0381242-.593237.4644414-.593237zm-1.3842759-.3398501c.0057931-.0107384.0114207-.0332013.0114207-.0546232 0-.0706212-.1584-.1251896-.3168-.1251896-.3720276 0-.5739586.3039066-.6780689.4290962-.0273656-.1851272-.1361656-.4290962-.2019311-.4290962-.0219586 0-.0488827.0171485-.0711172.0224629l-.4152828.1680335c-.0269241.0106835-.0491586.0267363-.0491586.0481582 0 .1251896.1422345.2225472.1422345.8196769v1.638258c0 .0599376.0108138.0759903.0765241.0759903h.5409655c.0651035 0 .0765242-.0160527.0765242-.0759903v-1.8116059c.0711172-.0759903.2456827-.2611175.4148414-.2611175.1260689 0 .2241655.0599376.2568827.0599376.0222345 0 .0384-.0321056.0437517-.0481583zm-1.9483034-4.8271138v-2.1861336c.1174621-.0813596.2941793-.2396957.5764965-.2396957.3124966 0 .3771587.2225472.3771587.4740221v1.9518072c0 .0460216.0237241.0695802.0700689.0695802h.3060414c.0473931 0 .0711172-.0235586.0711172-.0695802v-1.9400279c0-.4215903-.0474482-.8774777-.7004137-.8774777-.2823725 0-.6002207.2226019-.7769932.351024-.0764689-.2332855-.2413793-.351024-.6238896-.351024-.2467862 0-.6120828.2054534-.7650759.3456548-.0054069-.0417482-.0700689-.3456548-.1584-.3456548-.017931 0-.0409931.0181895-.0528.0235586l-.2532413.1402014c-.0237242.0181895-.0291311.0299141-.0291311.0416934 0 .0289278.0463448.064211.0758621.1980023.0297379.1348322.0358069.2749788.0358069.40877v2.0052799c0 .0460216.0230621.0695802.0704552.0695802h.3060413c.0470069 0 .0704552-.0235586.0704552-.0695802v-2.1797235c.0998069-.0824005.3060414-.2461058.5707035-.2461058.3179034 0 .3825655.2225472.3825655.4740221v1.9518072c0 .0460216.0236689.0695802.0706758.0695802h.3060414c.0467862 0 .0704552-.0235586.0704552-.0695802zm-.4950069 6.2641918c.1038345 0 .126069-.0321055.126069-.1348322 0-.6570126-.164469-1.4820586-1.0929104-1.4820586-.7320827 0-1.1965241.5971297-1.1965241 1.4595957 0 .9983939.5027862 1.4049725 1.2234482 1.4049725.4317242 0 .9780414-.1786623.9780414-.3199047 0-.0214219-.0054069-.0428439-.0161655-.0588966l-.1364414-.3263696c-.0112-.0213671-.0327172-.0427891-.0601379-.0427891-.076469 0-.3008552.1787171-.6941793.1787171-.5133241 0-.6006069-.3745279-.6006069-.6784345zm-1.0049655-1.0972279c.3767172 0 .3933241.3759734.3933241.593237h-.8577655c.0161655-.148336.0381241-.593237.4644414-.593237zm-1.354538-7.5510998c.1120552 0 .1648552.0524317.1939862.0524317.023669 0 .029738-.029914.0355311-.0416934l.1293241-.2974965c.0057931-.0170937.0176552-.0352832.0176552-.0470625 0-.0524317-.1527724-.099549-.2881655-.099549-.3415724 0-.5534345.3274653-.7057655.4911706-.0237242-.1284221-.1239725-.4911706-.2295725-.4911706-.0118069 0-.035531.0117793-.0592551.0299688l-.2176552.1337912c-.0118621.0064102-.0355862.0235039-.0409379.0588419 0 .0170937.0172138.064211.064662.1455158.0818759.1466115.1001931.3391898.1001931.444108v2.0052799c0 .0460216.0232828.0695802.0700138.0695802h.3060414c.0474483 0 .0711173-.0235586.0711173-.0695802v-1.9293443c.1411862-.150885.3469793-.4547916.5528275-.4547916zm-.1271724 7.2818709c.0054069-.0117794.0215724-.0545684.0269793-.0931389 0-.0427891-.0384-.0481583-.1200551-.0588419l-.3713656-.0491992c-.0166068 0-.0764689-.0053692-.0878896-.0053692-.0435862 0-.0597517.0492541-.0763035.1080959l-.3713655 1.220941c-.0657103.2118636-.1529931.5917606-.1859862.7864756h-.0105379c-.0329931-.2000842-.114869-.5692428-.1752276-.7864756l-.3329655-1.220941c-.0168276-.0535275-.0329931-.1080959-.0765242-.1080959-.0112 0-.0711172.0053692-.0879448.0053692l-.4530207.0491992c-.0818758.0106836-.12.0160528-.12.0588419.0051311.0385705.0212966.0813595.0269242.0931389l.8689655 2.5007239c.0215724.0599376.0269241.0706212.1034483.0706212h.4482758c.0765242 0 .0818759-.0106836.1041104-.0706212zm-2.8545103 1.3664568c.1041103 0 .1260689-.0321055.1260689-.1348322 0-.6570126-.1641931-1.4820586-1.0926896-1.4820586-.7320828 0-1.1965241.5971297-1.1965241 1.4595957 0 .9983939.5025655 1.4049725 1.2235034 1.4049725.431669 0 .9777655-.1786623.9777655-.3199047 0-.0214219-.005131-.0428439-.0161655-.0588966l-.1366069-.3263696c-.0107586-.0213671-.032331-.0427891-.0599172-.0427891-.0765242 0-.3006345.1787171-.6939587.1787171-.5136 0-.6008827-.3745279-.6008827-.6784345zm-1.0049655-1.0972279c.3767172 0 .3935448.3759734.3935448.593237h-.8579862c.0161655-.148336.0383448-.593237.4644414-.593237zm-1.4536828-5.1669639v-2.3733976h.7534897c.0349241 0 .064662-.0224629.0763034-.0524317l.076469-.2279163c0-.0171485.0060689-.0289278.0060689-.0407071 0-.0352832-.029131-.0406524-.064662-.0406524h-.847669v-.4504634c0-.3381489.0237241-.5843095.3530483-.5843095.2471724 0 .4123034.1231077.5118345.1231077.0183172 0 .0295172-.0171485.0413793-.035338l.0825379-.1926331c.0118621-.0406524.029131-.0641562.029131-.0813047 0-.0877697-.3761103-.2054534-.6472275-.2054534-.7294897 0-.8176552.5318229-.8176552.9705618v.4558326h-.4123035c-.0409379 0-.0409379.0289278-.0409379.0695802v.2225471c0 .0289279 0 .0695802.0409379.0695802h.4123035v2.3733976c0 .0460216.0230621.0695802.0704552.0695802h.3060413c.0473931 0 .0704552-.0235586.0704552-.0695802zm-.8581517 4.3872792c.2456827 0 .4478345-.20118.4478345-.4504634 0-.2493383-.2021518-.4451491-.4478345-.4451491-.2517517 0-.4536828.1958108-.4536828.4451491 0 .2492834.2019311.4504634.4536828.4504634zm.3497931 2.9566113v-2.5275151c0-.0599376-.0110345-.0759355-.0765242-.0759355h-1.0383448c-.0651034 0-.0765241.0159979-.0765241.0759355v.352065c0 .0599376.0114207.0759903.0765241.0759903h.4208552v2.0994598c0 .0599376.0108138.0759903.0763034.0759903h.5411862c.0654897 0 .0765242-.0160527.0765242-.0759903zm-1.2463448-7.2743103c.046731 0 .0704551-.0235586.0704551-.0695802v-1.9400279c0-.4215903-.0467862-.8774777-.7001931-.8774777-.4474482 0-.7534896.2461058-.9472.3980865-.0060689-.0470625-.0767448-.3980865-.1827862-.3980865-.0172138 0-.035531.0181895-.046731.0235586l-.2646621.1466116c-.0237241.0170937-.0295172.028873-.0295172.0406524 0 .028873.046731.0706211.0941793.2450648.0230621.0877149.0230621.1519259.0230621.3456v2.0160182c0 .0460216.0236689.0695802.0706758.0695802h.3060414c.0473931 0 .0711172-.0235586.0711172-.0695802v-2.0694909c.146538-.1284221.3937104-.3563384.7764966-.3563384.3172414 0 .3825655.2225472.3825655.4740221v1.9518072c0 .0460216.0230621.0695802.0704552.0695802zm-.4752552 7.2528883c.0275862-.0106836.0489379-.0267363.0489379-.0491992 0-.1080959-.0978207-.1787171-.0978207-.7051709v-2.9619804c0-.0919884-.0109793-.1144513-.0549517-.1144513-.0110345 0-.0599172.0170938-.0765241.0170938l-.4586483.0920431c-.0657104.0160527-.1038345.0160527-.1038345.0973575v1.1118042c-.0872828-.0588419-.2135724-.1626643-.5081931-.1626643-.6777931 0-1.0491586.5157702-1.0491586 1.5409004 0 .8250461.3116689 1.3236678.9345103 1.3236678.393269 0 .6336-.2439691.7213242-.3252739.0269241.1358732.1088.3252739.1584.3252739.0215724 0 .0491586-.0160528.0704551-.0213672zm-1.6062345-1.2262554c0-.6024441.0820966-.9063508.4913655-.9063508.2297931 0 .322869.0813048.3720276.1091368v1.4809629c-.0659862.0706212-.1584.1894006-.4043034.1894006-.3556414 0-.4590897-.2600218-.4590897-.8731495zm-.8028138-9.7194795v-.2396956c0-.0470626-.0234483-.0706212-.0704552-.0706212h-1.5538758c-.0470069 0-.070069.0235586-.070069.0706212v.2396956c0 .0471173.0230621.0695802.070069.0695802h.5355586v3.2433694h-.5355586c-.0470069 0-.070069.0235587-.070069.0706212v.2396956c0 .0460216.0230621.0695802.070069.0695802h1.5538758c.0470069 0 .0704552-.0235586.0704552-.0695802v-.2396956c0-.0470625-.0234483-.0706212-.0704552-.0706212h-.5355586v-3.2433694h.5355586c.0470069 0 .0704552-.0224629.0704552-.0695802zm-.6075034 10.9832096c.0381241-.0106836.0601379-.0321055.0601379-.0588418 0-.1251896-.1038897-.0813596-.1038897-.8464132v-1.6928812c0-.0920431-.0108138-.114506-.0384-.114506-.0219586 0-.0762482.0171485-.0924138.0171485l-.4593103.0919883c-.0654897.0160528-.1038345.021422-.1038345.0974123v1.9207427c-.0711172.049254-.2510896.1680335-.4806069.1680335-.2791172 0-.3060414-.2493383-.3060414-.4558326v-1.7249867c0-.0920431-.0108138-.114506-.0441931-.114506-.0161655 0-.0704551.0171485-.0872827.0171485l-.4590345.0919883c-.06532414.0160528-.10344828.021422-.10344828.0974123v1.8661743c0 .6570673.40948968.7918448.71012418.7918448.4321103 0 .6885517-.1894007.8361931-.3199047.0599172.217178.1034482.3199047.1745655.3199047.0220138 0 .0491586-.0053144.0818758-.0160528zm-3.50284142.151926c.3718069 0 .77048276-.1027267.77048276-.2054534 0-.0160528-.00535172-.0160528-.01075862-.0438301l-.10990345-.445149c-.00540689-.021422-.02157241-.0321055-.04308965-.0321055-.07652414 0-.2134069.1027267-.43216552.1027267-.18532414 0-.18532414-.1572952-.18532414-.330643v-1.3129842h.54096552c.06504828 0 .08187586-.0053692.09804138-.0813595l.07111724-.3199046c.0054069-.021422.0054069-.0332013.0054069-.0438849 0-.0588418-.04353104-.0588418-.09268966-.0588418h-.62284138v-.7597941c0-.065252-.00540689-.0930841-.05495172-.0930841-.03233104 0-.05428966.0064102-.07111724.0064102l-.4806069.064211c-.07652414.0117793-.08728276.0278321-.08728276.0984533v.6838037h-.38791724c-.06576552 0-.07652414.0159979-.07652414.0759355v.352065c0 .0599376.01075862.0759903.07652414.0759903h.38791724v1.2209411c0 .4986216 0 1.0464974.70471724 1.0464974zm-2.72733793 0c.68855173 0 1.18035862-.4547369 1.18035862-1.143855 0-.4130983-.19111724-.6998564-.47023448-.9063508-.4806069-.3531606-1.11961931-.4290962-1.11961931-.8410988 0-.3252738.26185379-.423727.51360552-.423727.39310344 0 .73208276.2396956.76507586.2396956.02195862 0 .04353103-.0225177.05969655-.0545684l.18035862-.3584751c.02223448-.0428439.02758621-.0653068.02758621-.0813595 0-.0919884-.53555862-.330643-1.05495173-.330643-.63361103 0-1.20150069.3253286-1.20150069 1.106435 0 .4505182.18534621.6677509.47521656.8410988.55712551.3360121 1.11420138.3852114 1.11420138.8678351 0 .3370531-.18532414.4997174-.49136552.4997174-.46981517 0-.87391448-.2386546-.90731586-.2386546-.02155035 0-.04892138.0214219-.05970207.0535274l-.12564414.3584751c-.01077517.0331465-.02737104.0706212-.02737104.0866739 0 .086674.58448552.3252739 1.14160552.3252739zm8.04849655-17.4528c-.017269.0053143-.0646621.0106835-.0646621.0460215 0 .0181895.0057931.0470625.0118621.0706212l.7236966 3.8094346c0 .0352832.0057931.0706212.0585931.0706212h.4241655c.0349241 0 .0467862-.0406524.0528-.0706212l.6120827-3.2315901h.0118621l.4939586 3.2315901c.0057931.0470625.0178759.0706212.0592552.0706212h.4407172c.0474483 0 .0534621-.0406524.0592552-.0706212l.806069-3.8094346c.0057931-.0235587.011862-.0524317.011862-.0706212 0-.0289278-.0237241-.035338-.064662-.0460215l-.2823173-.0706212c-.0297931-.0053692-.064662-.0171485-.0829793-.0171485-.029131 0-.0349241.0524317-.0463448.1048634l-.5355586 2.8870858c-.0295173.1572951-.0295173.3852114-.0413793.5777898h-.0118621c0-.2043577-.0351448-.4258638-.058869-.5724754l-.4881103-2.887031c-.0064552-.0342423-.0183173-.0695803-.0592552-.0695803h-.3707034c-.040938 0-.0474483.035338-.0528.0695803l-.5646897 2.8057263c-.0415448.2161369-.0531862.4258638-.0711172.6537801h-.0118069c-.0118621-.1572952-.0291311-.5136335-.0467862-.6195379l-.5006345-2.8453377c-.0054069-.0524317-.017269-.1048634-.0463448-.1048634-.0183173 0-.0534621.0117793-.0765242.0171485zm4.179531 1.220941v.2215061c0 .0470626.0234483.0706212.0704552.0706212h.4590345v2.3723566c0 .0470626.0237241.0706212.070731.0706212h.3058207c.0469517 0 .0706759-.0235586.0706759-.0706212v-2.6473902c0-.0524317-.0118621-.0877149-.0765242-.0877149h-.8297379c-.0470069 0-.0704552.0235587-.0704552.0706212zm.7234759-1.4553223c-.1997793 0-.3588414.1583909-.3588414.3563384 0 .1990432.1590621.3563383.3588414.3563383.2004414 0 .3595034-.1637052.3595034-.3563383 0-.1925783-.159062-.3563384-.3595034-.3563384zm2.0168276 8.8249081c0-.8239503-.3411862-1.4671016-1.1476414-1.4671016-.8530207 0-1.1946483.6902138-1.1946483 1.4959746 0 .8357296.3416276 1.4735118 1.1357793 1.4735118.858869 0 1.2065104-.6838037 1.2065104-1.5023848zm-1.1655173 1.1395815c-.5409655 0-.6940137-.496485-.6940137-1.1631402 0-.5778445.1584551-1.0807944.6886068-1.0807944.5291035 0 .6885518.5254128.6885518 1.0989839 0 .6720243-.1594483 1.1449507-.6831449 1.1449507zm.2973794-6.0437266c-.0118621.0235586-.023669.0417481-.023669.0706212 0 .1166427.6120276.280348.8943448.280348.5064828 0 .9418483-.280348.9418483-.8293195 0-.9116652-1.3067035-.7308114-1.3067035-1.3739627 0-.2685687.2-.3852114.4360276-.3852114.3059862 0 .5527724.1572951.5937104.1572951.0355862 0 .0474483-.0235587.0711172-.0695254l.0765242-.1583909c.0054069-.0224629.0237241-.0406524.0237241-.0578009 0-.0299688-.0183172-.0524317-.0653241-.0759356-.1527725-.0824005-.4939587-.1755393-.6944-.1755393-.5179035 0-.8883311.3392446-.8883311.8122257 0 .8827921 1.3064276.7479599 1.3064276 1.3557732 0 .280348-.2176552.4205494-.4708965.4205494-.3997794 0-.7058207-.2044124-.7592828-.2044124-.0176552 0-.034869.0117793-.0528.0524317zm2.6724413-3.8094346v4.0084778c0 .0470626.023669.0706212.0706759.0706212h.3060414c.0467862 0 .0704551-.0235586.0704551-.0706212v-1.3675525h.0118621l1.2004414 1.4724159c.0118621.0181895.035531.0470626.0646621.0470626.0236689 0 .0473931-.0235587.0706758-.0352832l.2062345-.1402014c.0112-.0117793.0351448-.0170937.0351448-.0406524 0-.028873-.0297379-.0524317-.0416-.0706212l-1.035531-1.3023005.9945931-1.092519c.0172138-.0181895.0409379-.0417481.0409379-.0706212 0-.0235586-.0237241-.0289278-.0351448-.0406524l-.2062345-.1402014c-.0232827-.0117793-.0469517-.0353379-.0700138-.0353379-.0297931 0-.0474482.0289278-.064662.0471173l-1.1713656 1.3204352v-2.6355561c0-.028873 0-.0759904-.0409379-.0759904-.0416.0053692-.0237241 0-.0711172.0117794l-.2941793.0695802c-.0237242.0064101-.040938.029914-.040938.0706212zm2.7251862 1.3439939v1.9400279c0 .4205494.0646621.876382.8592552.876382.3357793 0 .6530207-.2107678.8181517-.3445591.0646069.1337913.1297104.3445591.2176552.3445591.0118621 0 .0237241-.0053144.0467862-.0170938l.2295173-.1402013c.0236689-.0117794.0534069-.0235587.0534069-.0470626 0-.035338-.076469-.1519807-.1122759-.2226019-.0585931-.1219571-.0646621-.2503792-.0646621-.3852114v-2.0802293c0-.028873 0-.0759903-.0413793-.0759903-.0409379.0053691-.0230621 0-.0700138.0117793l-.2941793.0695802c-.0237241.0064101-.0413793.0299688-.0413793.0706212v2.1272918c-.111669.1048634-.4887724.2974965-.6708966.2974965-.3825655 0-.4827586-.2215061-.4827586-.4729811v-2.0277976c0-.028873 0-.0759903-.0409379-.0759903-.0409931.0053691-.0237241 0-.070731.0117793l-.2941793.0695802c-.0235035.0064101-.0413794.0299688-.0413794.0706212zm3.5010759 6.2941605c.4180966 0 .5236966.187264.5236966.5264538v.2097268c-.3648552.0117794-1.5420138.0299688-1.5420138 1.0176244 0 .5200984.3006344.8240051.7650758.8240051.4888276 0 .776938-.3274654.847669-.3916764.0295172.0813048.1351172.3916764.2235034.3916764.0118069 0 .023669-.006465.0473931-.0182443l.2295173-.1401466c.0232827-.0117793.0528-.0235587.0528-.0470625 0-.0342423-.0823173-.1455706-.1062621-.2161918-.0528-.1637053-.0704552-.216137-.0704552-.5842547v-1.1449506c0-.4911706-.2295172-.8186359-.906262-.8186359-.3764966 0-.918069.1701702-.918069.2696644 0 .0289279.0060138.0460216.0178759.0759904l.0764689.2043576c.0058483.0171485.0230621.0289279.0413793.0289279.0528552 0 .3233104-.187264.7176828-.187264zm-.5764965 1.7185218c0-.6142235.8416-.6142235 1.1001931-.6195927v.7533291c-.0943449.0824006-.3648552.3627486-.6708966.3627486-.2999724 0-.4292965-.2631995-.4292965-.496485zm4.117462-8.164663c-.6832 0-.9827862.7008974-.9827862 1.5430919 0 .7244013.2877242 1.4252987.9181242 1.4252987.4353655 0 .7230896-.24501.8648827-.3445591.0230621.0930841.1293241.3445591.2116414.3445591.0118621 0 .0237241-.0053144.0473931-.0170938l.2295172-.1402013c.0230621-.0117794.0528-.0235587.0528-.0470626 0-.035338-.0764689-.1466115-.1059862-.2161917-.064662-.1465568-.064662-.3210004-.064662-.5842547v-3.2315901c0-.028873 0-.0759904-.0470069-.0759904-.0416.0053692-.0237242 0-.0711173.0117794l-.2877241.0695802c-.0237242.0064101-.0416.029914-.0416.0706212v1.3910564c-.1588414-.0994942-.3592276-.1990432-.7234759-.1990432zm.0172138 2.576769c-.4762483 0-.5176276-.5553816-.5176276-1.0454564 0-.567161.0467311-1.1396363.5532138-1.1396363.2941793 0 .4827586.0930841.6706759.1926331v1.6479006c-.1415724.0877149-.4002207.344559-.7062621.344559zm1.4688 2.5317885c0-.1926331-.1584552-.3563384-.3588414-.3563384-.2004413 0-.3588413.1572951-.3588413.3563384 0 .1979475.1584.3563383.3588413.3563383.2003862 0 .3588414-.16376.3588414-.3563383zm1.6286345-5.1085575c-.729931 0-1.1652966.6249618-1.1652966 1.4841953 0 .8881613.4590345 1.4788809 1.2413794 1.4841953.4357517 0 .929931-.2396957.929931-.3039067 0-.0170937-.0118069-.028873-.0172138-.0470625l-.1001931-.2450648c-.0118621-.0170937-.017931-.0352832-.0355862-.0352832-.0351448 0-.3411862.2396956-.7234759.2396956-.6708965 0-.8120827-.6431513-.8120827-.9994349h1.6885517c.0646621 0 .0646621-.0460215.0646621-.128422 0-.5018542-.0883311-1.4489121-1.0706759-1.4489121zm-.0237241.3628033c.5124965 0 .6120827.5489166.6120827.8528233h-1.2708965c0-.2921273.117462-.8528233.6588138-.8528233z"/></svg>