<svg height="1273.1641" width="1000" xmlns="http://www.w3.org/2000/svg" xmlns:xlink="http://www.w3.org/1999/xlink"><clipPath id="a"><path d="m0 595.276h841.89v-595.276h-841.89z"/></clipPath><g transform="translate(-1800.0714 281.30188)"><path d="m1800.5714-253.48547s205.2548-27.31641 502.1016-27.31641c298.6773 0 496.8984 27.31641 496.8984 27.31641v738.84374c0 290.36127-225.5686 506.00391-499.5 506.00391-276.2175 0-499.5-218.55609-499.5-499.5z" fill="#0b5ed8"/><g fill="#fff"><g clip-path="url(#a)" transform="matrix(2.16168237 0 0 -2.16168237 1387.025347 642.883194)"><path d="m360.917 371.159h-21.476v-27.971h-22.359v27.971h-21.479v-70.369h21.479v27.678h22.359v-27.678h21.476zm74.724-56.233v56.233h-21.477v-70.369h38.837l3.233 14.136zm-37.362 56.233h-21.476v-70.37h21.476zm87.082 0h-21.474v-70.37h21.474zm105.903-17.959c0 3.826 3.83 5.595 10.001 5.595 6.768 0 14.129-1.473 19.126-3.542l-1.762 15.315c-5.595 1.178-10.596 2.061-19.713 2.061-17.36 0-29.123-6.848-29.123-21.201 0-24.725 33.543-19.724 33.543-31.206 0-4.413-3.242-6.765-11.19-6.765-7.049 0-17.943 2.352-24.414 5.591l2.361-16.198c6.466-2.356 15.292-3.53 22.356-3.53 17.941 0 32.654 5.89 32.654 23.557 0 23.546-33.839 19.134-33.839 30.323m-60.59-35.626c19.99 0 32.645 10.307 32.645 28.262 0 19.728-13.53 26.793-35.595 26.793-8.532 0-18.834-.587-26.187-1.47v-70.369h21.485v16.784zm11.463 27.971c0-9.129-4.409-15.312-15.592-15.312h-2.60964v29.075c1.246.07 1.50664.07 2.60964.07 10.588 0 15.592-5.003 15.592-13.833m-287.718-27.971c20.006 0 32.655 10.307 32.655 28.262 0 19.728-13.533 26.793-35.596 26.793-8.533 0-18.831-.587-26.184-1.47v-70.369h21.473v16.784zm11.477 27.971c0-9.129-4.415-15.312-15.595-15.312h-2.56691v29.075c1.256.07 1.46191.07 2.56691.07 10.586 0 15.595-5.003 15.595-13.833" fill="#fff"/></g><path d="m1869.8613 545.40327c-1.3394-12.14831-2.728-37.0995-3.0196-53.42494 37.313 19.36185 93.2764 42.27539 176.1861 42.27539 201.0143 0 291.8031-150.63512 489.6511-150.63512 81.3489 0 150.2149 23.40801 196.7432 52.26354 2.0185 18.00187 2.6148 36.00376 3.3681 54.00564-53.06-26.05567-108.0693-41.57854-176.07-41.57854-203.3401 0-286.2612 149.58984-490.1158 149.58984-78.7933 0-144.3177-20.19515-196.7431-52.49581z"/><path d="m1870.7595 437.53211c6.8711-59.84565 23.7175-104.53382 50.6684-155.18863l89.8933 11.49799c17.0218 2.217 29.3407 5.79589 37.6042 14.87414 7.9348 8.91402 11.4066 14.22575 16.1938 47.7137l13.3598 104.91593s-27.3231 4.74909-61.3508 5.08202c-58.9545 0-112.3644-15.14298-146.3687-28.89515z"/><path d="m1930.4638 266.79587c31.7148-52.41348 78.8933-104.41039 143.7173-143.63526l-10.7126 81.01987c-2.4047 17.44978-4.2594 25.90283-13.5321 36.76039-7.8535 8.70317-20.937 12.0959-36.2696 14.88599z"/><path d="m2095.4074 165.27317-6.1554-51.33439c26.6985-15.089054 60.1685-30.077761 98.6037-39.720296l-7.5491 57.489886c-3.2459 18.12294-11.0068 23.79307-30.3128 26.71248z"/><path d="m2187.5126 260.96505-47.7963-6.98056c-22.5723-4.7125-35.2578-20.47475-38.5386-48.80897l-4.7126-34.09422 56.7195 8.0059c18.7086 2.07898 25.3488 11.22353 27.8401 31.20721z"/><path d="m2086.8282 459.62353 11.4828-97.83948c6.9665-48.6784 13.3111-61.20205 54.354-67.7103l116.0251-15.33063v-7.78147l-74.4465-9.05901 7.3169-56.6769c1.8743-16.51807 9.5721-24.03224 30.3128-26.59633l60.3934-8.12988v-4.41337l-64.3422-8.36216c-18.514-3.03251-24.3988-10.80241-26.5963-27.75775l-7.5492-57.141462s44.5339-13.472374 106.1531-13.472374c239.3908 0 381.6275 180.961576 416.366 313.348916-36.4295-23.61036-110.6636-57.72217-199.8789-57.72217-180.5455 0-272.1672 114.97114-429.591 144.64437z"/><path d="m2299.8159 925.01072c-183.0315 0-356.691-114.17404-416.8306-315.49752 52.9524 33.43998 129.0191 57.95445 202.4339 57.95445 191.1696 0 283.7617-121.56403 426.8947-146.99008l-15.1109 118.42313c-5.2942 30.56764-13.6875 43.83162-50.4243 49.93153l-117.4376 14.9466v8.04818l110.2107 13.96111c36.5564 3.93881 53.5756 16.04247 57.487 52.06677l12.3185 92.80036c-36.1242 21.63122-113.102 54.35547-209.5414 54.35547z"/><path d="m2523.8112 863.09982 9.198-74.07605c6.0576-41.80782 12.7704-56.91679 53.3807-62.08591l84.2196-10.86858c-42.6378 68.93929-90.1057 110.433-146.7983 147.03054z"/><path d="m2679.1902 701.31511-85.0806-11.1689c-43.7969-5.12319-54.7088-15.88367-60.2792-58.47245l-14.4539-112.34592s29.1116-4.92745 62.2502-4.92745c49.4579 0 116.8351 15.89324 148.1521 29.72896-7.3103 52.39525-17.0822 94.9356-50.5886 157.18576z"/></g><path d="m2406.4226 894.96401h3.5445l6.3295-47.78461c2.9932-19.49185 10.4848-20.9895 24.2407-23.49921l46.6465-5.91294v-3.61347l-50.1885-6.45378c-13.2755-2.05842-18.3988-9.03706-20.4583-20.60252l-6.3657-49.97622h-3.7777l-6.5419 50.87717c-2.6395 12.28813-7.4437 17.21155-20.7434 19.42117l-49.9315 6.73418v3.61347l48.0451 6.15348c15.8603 2.03274 21.6842 9.38613 23.335 24.44968z" fill="#0b5ed8"/></g></svg>