<svg version="1" xmlns="http://www.w3.org/2000/svg" width="933.333" height="933.333" viewBox="0 0 700.000000 700.000000"><path d="M447.5 170.8c-5.6.5-23 4.4-26.5 5.9-23.6 10-30.2 14.7-54.7 38.6-8.3 8.2-15.4 14.9-15.8 14.8-.3 0-7.9-7.1-16.8-15.8-22-21.5-35.4-30.1-55.4-35.8-10.7-3-20.4-4.2-32-3.9-8.6.2-19.1 1.1-20.2 1.8-.3.2-2.2.7-4.1 1-5.3.8-18.7 5.5-25.5 8.8-14.2 7.1-28.1 18-37.7 29.8-4.2 5.1-12.8 17.6-12.8 18.6 0 .2-1.3 3.1-2.9 6.4-4.4 9.1-7.3 18.5-9.9 33-1.3 7.2-1.2 27.8.3 36.5 3.6 22.2 10 36.6 28.7 65.1 3.6 5.5 10.3 14.8 14.9 20.5 10.4 13.2 37.2 39.8 40.2 40 4.6.3 35.8-1 36.7-1.6.3-.1 4.3-.6 9-.9 4.7-.4 10.1-1 12-1.3 1.9-.3 4.9-.7 6.5-.8 4.3-.4 4.2-.3 4.8-2.3.7-2.4 6.7-24.4 7.2-26.2 3.6-15 15-54.1 16.3-56 1-1.4 3.8-3.5 6.1-4.7 7.9-4.1 20.7-1.6 25.4 4.8 1 1.5 4.6 13.6 8.3 28.5 3.6 14.2 6.6 26.3 6.8 26.9.2.5 1-.6 1.8-2.5 2.9-6.6 9-10.8 16.9-11.5 5.6-.5 9.9 1.6 20.3 9.9l9.8 7.8 6.2-1.7c9.8-2.6 43.8-14.2 59.6-20.2 26.6-10.1 61-26.2 79.6-37.1l7.1-4.1 3.1-8.3c8.6-23.1 10.7-44.9 6.6-69.8-1-6.2-7.3-24.1-11.1-31.4-16.4-31.5-44.8-53.6-78.3-60.9-7.3-1.6-23.2-2.6-30.5-1.9zM569 230.4c0 1.8 5.5 13.6 6.4 13.7.6 0 1.8.2 2.6.4 27.1 5.4 36.6 9 46.3 17.5l4.2 3.7 5.9-2.6 5.9-2.7-4.9-4.6c-9.5-9.1-17-13.6-30.5-18.1-10.4-3.5-35.9-8.7-35.9-7.3zM653.5 269.1c-15.1 5.5-22 8.4-31.5 13.2-19.3 10-39.4 26-38.5 30.7.8 4.1 3.4 5.8 10.8 7 11.1 1.8 17.2 3.7 19.9 6.5 2.2 2.2 5.1 9.9 6.4 17.2.8 4.3 3.4 9.8 5.2 10.9 3 1.9 7.4-.3 11.8-5.9 13.5-17.4 21.8-34.7 29-60.6 3.9-14.4 4.1-17.4 1.4-20.1-2.6-2.6-4.8-2.4-14.5 1.1zm-14.6 28.8c8.3 5.9.6 19-8.9 15.1-3.4-1.4-6.3-6.9-5.5-10.2 1.9-7.1 8.3-9.3 14.4-4.9z"/><path d="M586.5 339.5c-4.4 3.5-8.3 6.4-8.7 6.5-.3 0-4.1 2.2-8.2 5-4.2 2.7-7.7 5-7.9 5-.2 0-4.4 2.3-9.2 5.1-20.1 11.5-55.7 27.6-84.5 38.1-3 1.1-7.5 2.8-10 3.8-5.1 2-35.5 11.7-47.2 15.1l-7.7 2.2-10.8-8.5c-5.9-4.6-11.8-9.1-13.1-10-2.3-1.6-5.6-1.4-7.9.4-1.1.9-3.7 8.4-4.6 13.8-.3 1.4-1 4.5-1.7 7s-1.4 5.2-1.6 6c-2.8 12.3-5.8 23.7-6.3 24.3-.5.5-8.3-28.1-11.6-42.5-3.7-16.7-14-55.9-15.1-57.6-1-1.6-2.4-2.2-4.9-2.2-2.5 0-3.9.6-4.9 2.2-.8 1.3-6.7 21.9-13.2 45.8-6.4 23.9-11.7 43.6-11.8 43.7-.1 0-2.5.4-5.5.8s-6.1.8-7 1c-.9.1-5 .6-9.1 1s-8.8.9-10.5 1.1c-15.7 1.9-56.3 2.5-74 1-5.5-.4-10.2-.9-10.5-1.1-.3-.2-3-.6-6-1-7.8-.9-24.6-5-31-7.5-31.7-12.1-38-30-19.3-55 1.9-2.5 6.5-7.7 10.4-11.6l6.9-7.1-2.9-5.7-2.9-5.7-7.6 7.2c-9.7 9.2-17.6 19.6-22.4 29.6-3.5 7.4-3.7 8.3-3.7 17.8 0 9 .3 10.5 2.9 15.7 10.1 19.9 40.1 33.5 80.6 36.4 4.7.3 10.5.7 13 1 5.2.4 43.3.4 50 0 10.4-.8 22.7-1.7 25.5-2.1 1.7-.2 5.7-.7 9-1.1 3.3-.4 6.9-.8 8-.9 1.1-.2 4.5-.6 7.5-1 3.1-.4 6.3-1.4 7.3-2.4 1.1-1.1 3.6-8.4 6.2-17.7 2.4-8.7 6.4-23.6 9-32.9 2.5-9.4 4.9-17.9 5.2-19 .4-1.2 4.7 14.3 11 39.5 5.8 22.8 10.6 42.4 10.8 43.5.3 1.1 1.1 4.3 2 7 .8 2.8 1.5 6 1.5 7.1 0 3.1 3.2 6.6 6.2 7 5 .5 6.1-2.3 14.7-36.5 4.4-17.8 8.3-32.6 8.5-32.8.2-.3 4.6 2.9 9.8 7 5.1 4.1 10.4 7.6 11.8 7.8 2.9.3 6.4-.6 24.5-6.2 62.2-19.3 110.3-40.2 151.5-65.7 10.7-6.6 28.3-19.2 29.4-21 .9-1.5-1-5.9-2.6-5.9-.7-.1-3.1-.3-5.3-.7-3.8-.5-4.5-.2-12 5.9z"/><path d="M510 409c-7.9 4.9-60.6 24-89.5 32.4-4.9 1.5-10.7 3.1-12.7 3.8-5 1.5-11.9.4-16.9-2.8-2.2-1.4-4.2-2.4-4.4-2.2-.1.2-2.9 10.8-6.1 23.7-3.3 13.5-6.7 24.7-7.9 26.4-2.9 4.4-7.9 7-14.1 7.3-12 .5-18.3-4.2-20.9-15.9-.2-.9-2.5-9.9-5-20-2.6-10-4.9-19.3-5.1-20.7-.3-1.4-1-4-1.6-5.9l-1.1-3.5-2.7 9.5c-1.5 5.2-3 10.6-3.4 12-.9 4-6 10.4-9.7 12.1-3.2 1.5-17.8 3.9-32.9 5.3-6.9.7-12.3 1.5-12.7 1.8-.2.3 38.6 26.2 69.6 46.6 8.5 5.5 16.4 10.1 17.6 10.1 1.2 0 8.4-4.1 16.1-9.1 7.6-5 19.1-12.5 25.4-16.7 16.6-10.9 50.1-33.3 52.6-35.1 1.2-.9 3.2-2.3 4.4-3.1 5.8-4 24.1-18.2 33.2-25.7 11.9-9.8 33-31.3 30.8-31.2-.8 0-2.2.4-3 .9z"/></svg>