<svg height="48" viewBox="0 0 35 48" width="35" xmlns="http://www.w3.org/2000/svg"><path d="m32.5491301 6.2672973c2.0833291 4.5119347 2.3706444 10.3482374 2.3706444 15.9809792 0 5.7829088-2.8778439 11.9728809-8.3198303 17.9013566-4.0253461 4.3851925-8.006129 7.0861405-8.1744137 7.1998632l-.9651448.6505037-.9657313-.6505037c-.1682847-.1137227-4.1502402-2.8146707-8.17558632-7.1998632-5.44339369-5.9284757-8.31906808-12.1184478-8.31906808-17.9013566 0-5.2858849.29476205-11.3223713 2.47829974-15.99256633l.48327607-1.03463159 1.14679852.04658142c.20112071.0091416.40839818.01368329.61456157.01368329 1.02724017 0 2.08819592-.10236267 3.15284571-.30365264 4.44869639-.83817444 7.65255519-3.25021865 7.85367589-4.97769065l3.4255021.01251876c.1776664 1.59209474 3.2091361 3.91435326 7.7926947 4.88895304 1.1844427.25247131 2.3595037.37987149 3.4952787.37987149.1630074 0 .3254285-.00116453.4843315-.00908338l1.1445703-.03755627zm-7.2772863 32.6768669c5.134735-5.592973 7.8489851-11.3656339 7.8489851-16.6958877 0-5.3256538-.2550656-10.8294816-2.1032653-15.00859204l-.0779856-.17631068-.496645.00454169c-1.2565647 0-2.560038-.14096703-3.8723067-.41964038-3.9033837-.82903284-7.1770191-2.63837169-8.5414736-4.72178397l-.086781-.13194187-1.0009127-.00343538-.0873673.13421272c-1.4183994 2.19602286-4.8110654 4.08385141-8.64232709 4.80825073-1.33396392.24996755-2.67684047.35687191-3.93205654.32869015l-.19537441-.00454169-.07945148.17741699c-1.94348282 4.33445943-2.20570201 10.02065353-2.20570201 15.01313373 0 5.3302538 2.71419147 11.104021 7.84916097 16.6958877 3.36276176 3.6630348 6.69972386 6.1126528 7.64258716 6.7768048l.1694574.1194115.1694574-.1194115c.9452087-.6664229 4.289207-3.1240063 7.6420007-6.7768048zm5.2854289-31.29508728c1.7350327 4.06038598 1.9771984 9.41224198 1.9771984 14.59919958 0 5.182416-2.6608915 10.8197578-7.6959457 16.3034974-3.1364277 3.417446-6.2617145 5.7737963-7.3781397 6.573279-1.1146661-.7972061-4.2340895-3.1467497-7.3787262-6.573279-5.03464366-5.4826332-7.69612156-11.1199168-7.69612156-16.3034974 0-4.8628092.24849842-10.3864341 2.07740693-14.60036411 1.25287064.01595413 2.55270854-.09665645 3.85846865-.34231522 3.90514268-.73942183 7.38752148-2.66568005 8.93726508-4.93105101l.3676463.00110631c1.5104576 2.18239781 4.7917157 3.98608866 8.8217526 4.84242986 1.3527274.28653396 2.6966594.43146041 3.9948555.43146041zm-10.9085999 32.55511468c3.1634002-2.8362845 5.3141605-6.5846332 5.63138-11.5577822-.1055444-4.5136815-1.99303-7.834471-5.0837218-10.3671028 6.1766927-4.0224222 2.5799742-11.1260889-2.6163284-11.1260889-5.4197048 0-8.58310494 7.6233989-2.5811468 11.1772702-3.086001 2.5690236-4.8738058 5.7737671-4.9793502 10.2863423.3183923 4.9732072 2.3166995 8.8090708 5.4554727 11.6282948l2.0927108-2.6907175zm-2.2856225-20.5726846c-.5417946-1.0621729-1.4594445-2.0140642-2.1988416-2.9943702-.1764937-.238788-.3002152-.9814123.2515474-.7823932.3653009.1341545.7939284.23314 1.1932381.0875731.3060787-.1114461.7880648-.0819251.7880648.3206548v2.4280566c0 .2467651.0357679.7426243-.0340087.9404789zm-.4180731-5.8784007-.6643434-.1274001.0240407.7812868-.5529354-.6243075-.3887552.6948202-.0949899-.7426243-.7798559.2229503.5165812-.6659979-.6403026-.3962332.7171155-.1050411-.2345431-.7062326.6397163.4030458.2409931-.7187514.288488.6891722.6643433-.4264529-.3119423.6827671.7640242.1166865-.6872113.368459zm3.7444807 0-.663757-.1274001.0228679.7812868-.552349-.6243075-.3881688.6948202-.0938173-.7426243-.7822012.2229503.5177539-.6659979-.6414754-.3962332.7171155-.1050411-.2351294-.7062326.6414754.4030458.2404067-.7187514.288488.6891722.6643433-.4264529-.3113559.6827671.7640241.1166865-.6872113.368459zm-.7106656 2.8430971c-.742329.980306-1.6588061 1.9321973-2.1988417 2.9943702-.0715356-.1979128-.0357678-.6948784-.0357678-.9393726v-2.4279984c0-.4037444.4819861-.4321591.7880649-.3218776.3993096.1467315.8291098.0466397 1.193238-.0864085.5529354-.1990191.4292139.5413343.2533066.7812869zm1.1985152 12.8826742c-.3113559.5549594-.8701549.8586121-1.2342831 1.255544-.6766568.7243993-.9346542 1.1792669-1.0114671 1.8036326-.8103464-1.4590465-2.4333847-5.7498941 2.1226151-10.7002764-.7001112 1.3430588-1.240733 2.5394444-1.3345503 3.7312883-.0527722.705068.1418986 1.2714398.4995769 1.9139723.4942996.5481469 1.1281523 1.2145523.9581085 1.9958392zm-4.9553094 3.1467497c-.1530394-.6015991-.4122095-1.2259648-1.0765529-1.8855577-.440941-.4435133-1.1574702-.8165141-1.3327912-1.3078316-.1119943-.5606656.5576262-1.1553939 1.0102944-1.8332118.3934461-.5890803.6397164-1.2771462.5576263-2.0777643-.1407259-1.2782524-.6115712-2.2881377-1.3814589-3.5549776 4.5618634 3.7710571 3.1334959 9.2468779 2.2228823 10.659343zm6.3010005-.6538867c-.0580494.752814.0187635 1.727472-.6344391 1.6933511-.2873153-.0114124-.5758033-.3559985-1.1750609-.3741653-.3465375.0125188-.7294291.0818669-1.0759665.1990192-.5353447.1865003-.1184443-1.5648446.7704741-2.2540168.1583166-.1159877.6514434-.4139923 1.2090697-1.2430252.2544792-.3730007.3418466-.3672945.4778816.1285065.2761745.7005264.3160468 1.0508186.4280411 1.8503305zm-7.0656111 1.6228385c-.345951-.116046-.7288427-.1876649-1.0753801-.1979128-.5992576.0170604-.8877457.3616465-1.1762337.3730007-.6520298.0352854-.575217-.9393144-.6344391-1.6921866.1119943-.8006181.1530394-1.1509104.4292139-1.8514368.1354486-.4958592.2234023-.5015072.4755361-.1273419.558799.8278683 1.0525122 1.1258729 1.2114152 1.242967.8877456.6880658 1.3058187 2.4394108.7698877 2.2529104zm5.678875 1.8559785c-.3582646-.3139006-.8232463-.6471324-1.1222888-.9860122-.1888072-.2103734.0826765-.5083198.3629555-.5253803.3952051-.0284728.7411562.0170605 1.1820973.1398608.8003783.2217858-.1465895.7823932-.422764 1.3715317zm-6.0547303-1.004179c-.4761225.4730926-.7581606.9291247-1.0396123 1.0394062-.2533066-.5424407-1.2712237-1.2430252-.4778816-1.3010191.4890224-.0352272.6895567-.2046671 1.0237807-.2399526.399896-.0466396.840837.1580857.4937132.5015655z" fill="#fff"/></svg>