<svg height="48" viewBox="0 0 48.000001 48" width="48" xmlns="http://www.w3.org/2000/svg"><g transform="matrix(.13333333 0 0 -.13333333 0 48)"><path d="m333.365 360h-306.799996c-14.65 0-26.5599995-11.621-26.5599995-25.957v-308.066395c0-14.336 11.9099995-25.9766005 26.5599995-25.9766005h306.799996c14.69 0 26.63 11.6406005 26.63 25.9766005v308.066395c0 14.336-11.94 25.957-26.63 25.957" fill="#0977b6"/><g fill="#fff"><path d="m80.085004 310.441c17.08 0 30.949996-13.875 30.949996-30.964 0-17.094-13.869995-30.965-30.949996-30.965-17.15 0-30.97 13.871-30.97 30.965 0 17.089 13.82 30.964 30.97 30.964m-26.73-85.402h53.439996v-171.796795h-53.439996z"/><path d="m140.295 225.039h51.18v-23.484h.73c7.12 13.504 24.55 27.746 50.53 27.746 54.05 0 64.04-35.571 64.04-81.84v-94.218795h-53.38v83.542795c0 19.926-.35 45.555-27.75 45.555-27.78 0-32.02-21.715-32.02-44.125v-84.972795h-53.33z"/></g></g></svg>