<svg xmlns="http://www.w3.org/2000/svg" viewBox="0 0 64 64">
  <path fill="#003C7D" d="M49.2 58.7c-7.1 0-10.7-3.5-10.7-10.4 0-6.5 4.2-10.8 10.6-10.8 3.1 0 4.4.5 5.4.9l.4.1v4.4h-1.4c-.7-1.9-1.7-3.5-4.6-3.5-4.8 0-7.6 3.1-7.6 8.4s3 8.4 8.2 8.4c2.5 0 3.8-.9 4.7-1.1l.7 1.7c.1.1-2.1 1.9-5.7 1.9zM23.8 26.3H8.1c-.1-.4-.1-1.1-.1-1.5l2-.5c.7-.1 1.2-.9 1.2-1.7l.1-4.3V9.2c0-.7-.3-1.6-.9-1.9l-2-.5c0-.3 0-.9.1-1.2h7.7c.1.4.1.9.1 1.3l-1.4.4c-.9 0-1.2.1-1.2 1.1v9.9l.1 6 5.5-.1c1.8 0 3-1.3 3.5-2.9l1.3.3-.3 4.7zM32 0v32h32V0H32zm25.1 7.5c-.4.1-.7.3-.7 1.2v9.9c0 6-4.4 8.1-8.1 8.1-3.9 0-8.1-1.5-8.1-7.3V8.9c0-.7-.3-1.3-.9-1.5l-1.8-.7c0-.3 0-.8.1-1.2h7.8c.1.4.1.9 0 1.3l-1.7.4c-.5.1-.7.4-.7.9v10.7c0 4.1 2.9 5.5 5.4 5.5 3.1 0 5.2-1.6 5.2-6.3V9.2c0-.9-.3-1.6-1.6-2l-1.3-.4V5.6h7.6c.1.4.1.8.1 1.2l-1.3.7zM0 32v32h32V32H0zm27.4 26h-6.8c0-.4-.1-.9-.1-1.2l1.2-.4c.9-.3 1-1.1 1-2 0-.4 0-.7-.1-1.1l-.3-9.5-.1-1.5H22l-5.7 12h-1.8L9.4 42.1h.1v1.5l-1 11.3c-.1.5 0 .8.3.9l2.6.8c0 .3 0 1.1-.1 1.3h-7c0-.4-.1-.8 0-1.2l1-.5c.7-.4 1.3-1.3 1.4-2.1L8 41.4c.1-.7-.3-1.3-.7-1.6l-1.7-.5c0-.3 0-.8.1-1.2h5.2l5 12.7h.3l5.7-12.7h5c.1.4.1.7.1 1.1l-1.3.5c-.5.3-1.2.9-1 2.3l1 12.8c.1.7.5 1.2 1 1.5l1.2.7c-.3-.1-.3.7-.5 1z"/>
</svg>
