<svg width="246" height="231" xmlns="http://www.w3.org/2000/svg">
  <path d="M183.773 191.441c-9.914 8.229-17.97 18.522-27.976 26.639-5.004 4.06-10.51 7.576-16.688 9.833-6.18 2.254-13.063 3.222-20.083 2.173-6.418-.96-12.813-3.575-18.73-7.109-5.92-3.535-11.388-7.972-16.52-12.742-10.269-9.541-19.282-20.473-29.823-29.68-9.063-7.914-19.12-14.44-28.33-22.166-9.21-7.725-17.806-17.056-21.972-28.042-3.936-10.378-3.501-21.439-.049-30.693C7.06 90.4 13.362 82.839 20.76 76.779c14.797-12.123 33.8-18.476 49.733-29.155 14.572-9.765 26.371-23.011 40.677-33.137 7.154-5.062 14.972-9.35 23.645-11.797 8.673-2.447 18.25-3 27.764-.677 13.865 3.393 26.797 12.705 37.06 23.914 10.265 11.208 18.156 24.283 25.501 37.41 6.468 11.563 12.637 23.385 16.503 35.715 3.864 12.331 5.325 25.307 2.263 36.649-3.792 14.04-14.098 24.387-25.436 32.462-11.34 8.074-24.006 14.403-34.699 23.276l.002.002z" fill="#FFF" fill-rule="nonzero"/>
</svg>
