
<svg width="111px" height="101px" viewBox="0 0 111 101" version="1.1" xmlns="http://www.w3.org/2000/svg" xmlns:xlink="http://www.w3.org/1999/xlink">
    <!-- Generator: Sketch 50.2 (55047) - http://www.bohemiancoding.com/sketch -->
    <desc>Created with Sketch.</desc>
    <defs></defs>
    <g id="Symbols" stroke="none" stroke-width="1" fill="none" fill-rule="evenodd">
        <g id="Illustration/extern" transform="translate(0.000000, 2.000000)" fill-rule="nonzero">
            <path d="M102.633383,0.00223953365 C102.091929,0.0156769457 101.556028,0.0909264532 101.035398,0.237394245 C73.7030534,8.297154 45.6543225,20.488918 24.6861504,40.6302549 C21.3208025,43.8417964 22.7632928,49.3739789 27.3004037,50.6572518 C32.9343071,52.2670537 38.4349293,52.6177702 43.0359042,53.4213274 C47.636879,54.2248847 51.0299938,55.3536273 53.2985492,57.4041764 C55.5698814,59.4547255 56.9915465,62.6635795 58.141096,67.0576132 C59.2878689,71.4516469 60.0597886,76.7674871 62.1117623,82.0994523 C63.7264073,86.2865499 69.3394855,87.3534804 72.4715915,84.0666894 C92.6622905,62.9215778 103.133187,34.3630459 108.878158,7.17244261 C109.655631,3.39652982 106.610991,-0.101228539 102.633383,0.00223953365 Z M71.9842885,28.0100765 L72.0345263,28.0100765 C72.2466415,27.9966412 72.4559658,27.9966412 72.6666855,28.0100765 C77.826411,28.0100766 82.009267,32.0369852 82.0095238,37.0045905 C82.0097807,41.9721958 77.8273412,45.9995054 72.6676157,46 C67.5078902,46.0004946 63.3246177,41.9739871 63.3238471,37.0063818 C63.3100661,32.2832592 67.0929253,28.3543287 71.985684,28.0100765 L71.9842885,28.0100765 Z" id="Shape" stroke="#C2352B" stroke-width="4" fill="#F44336" stroke-linecap="round" stroke-linejoin="round"></path>
            <path d="M43.9051422,60.0026671 C41.2070467,60.0026671 39.0198081,62.0923496 39.0198081,64.6701036 C39.0225524,65.9452886 39.5712748,67.1638761 40.5384491,68.0426599 C40.0080414,68.1026698 39.4929876,68.24536 39.0114333,68.4640627 C38.8943799,64.4973561 35.4963942,61.3389733 31.3428546,61.3362204 C27.4348249,61.3375445 24.1517714,64.1440255 23.7175461,67.8546289 C19.8732821,65.886926 15.1549153,66.4023462 11.8747556,69.1482998 C8.5945959,71.8942534 7.43992618,76.2953881 8.9766105,80.1948587 C10.5132948,84.0943293 14.4193559,86.6750904 18.7805671,86.6723993 C21.4221452,86.6715136 23.9654487,85.7152898 25.8991967,83.9959578 C27.5107067,87.0160596 31.0785604,88.587588 34.5289022,87.7970743 C37.979244,87.0065606 40.4130397,84.0599841 40.4156178,80.6700759 C40.413407,79.39292 40.0621742,78.1384513 39.3966767,77.030809 C39.94523,77.230842 40.5272826,77.3335256 41.1135227,77.3361927 C43.1088717,77.3348363 44.9028141,76.1742756 45.6449274,74.4046771 C46.3870407,72.6350787 45.9281521,70.6121505 44.485799,69.2948664 C46.9390265,69.0143019 48.7868123,67.0279743 48.7904762,64.6674365 C48.7904762,62.0896825 46.6032376,60 43.9051422,60 L43.9051422,60.0026671 Z M36.4184571,74 C36.4340286,74.049 36.4496,74.098 36.4672476,74.146 C36.4229213,74.1208135 36.3782799,74.096145 36.3333333,74.072 L36.4184571,74 Z M3.63333333,76 C1.62669874,76 0,77.5670034 0,79.5 C0,81.4329966 1.62669874,83 3.63333333,83 C5.63996792,83 7.26666667,81.4329966 7.26666667,79.5 C7.26666667,77.5670034 5.63996792,76 3.63333333,76 Z M6.22857161,84 C2.7886265,84 0,86.6862915 0,90 C0,93.3137085 2.7886265,96 6.22857161,96 C9.66851658,95.9999998 12.4571429,93.3137084 12.4571429,90 C12.4571429,86.6862916 9.66851658,84.0000002 6.22857161,84 Z M22.8380952,87 C19.3981502,87 16.6095238,89.6862915 16.6095238,93 C16.6095238,96.3137085 19.3981502,99 22.8380952,99 C26.2780403,99 29.0666667,96.3137085 29.0666667,93 C29.0666667,89.6862915 26.2780403,87 22.8380952,87 Z" id="Shape" fill="#FFFFFF"></path>
        </g>
    </g>
</svg>
