<svg width="253" height="192" xmlns="http://www.w3.org/2000/svg">
  <path d="M129.58 12.165c-14.586 2.04-29.182 1.678-43.774 3.494-7.298.91-14.612 2.37-21.626 4.892-7.016 2.52-13.74 6.127-19.305 10.964-10.612 9.221-16.226 22.126-19.52 34.742-3.29 12.615-4.65 25.457-8.717 37.955-3.462 10.643-8.837 20.868-12.473 31.479C.53 146.3-1.299 157.75 2.49 167.59c3.834 9.963 13.215 17.238 24.136 20.695 10.92 3.457 23.259 3.374 35.225 1.375 23.932-4.001 46.518-15.325 70.283-20.705 17.186-3.892 34.681-4.605 51.972-7.69 8.646-1.542 17.274-3.692 25.487-7.05 8.212-3.357 16.016-7.96 22.371-13.952 10.91-10.29 16.934-24.123 19.16-37.733 2.222-13.608.955-27.145-.838-40.418-1.47-10.89-3.317-21.808-7.671-31.766-4.355-9.963-11.43-18.998-21.586-24.195-6.476-3.314-14.008-4.967-21.7-5.393-7.69-.426-15.553.35-23.326 1.68-15.546 2.663-30.842 7.547-46.421 9.726z" fill="#FFF" fill-rule="nonzero"/>
</svg>
