
<svg width="130px" height="126px" viewBox="0 0 130 126" version="1.1" xmlns="http://www.w3.org/2000/svg" xmlns:xlink="http://www.w3.org/1999/xlink">
    <!-- Generator: Sketch 50.2 (55047) - http://www.bohemiancoding.com/sketch -->
    <desc>Created with Sketch.</desc>
    <defs></defs>
    <g id="Symbols" stroke="none" stroke-width="1" fill="none" fill-rule="evenodd">
        <g id="Illustration/knvi" transform="translate(2.000000, 2.000000)">
            <path d="M96.6357283,94.4137681 C104.449346,94.1192818 111.92562,91.2099125 117.715854,86.1696908 C118.568663,85.4057096 119.701709,84.9863241 120.875065,85.0003403 C122.738404,85.0221367 124.396315,86.126405 125.049331,87.7806521 C125.702347,89.4348992 125.21638,91.2994503 123.82577,92.4751935 C116.720579,98.6584886 107.622108,102.322182 98.0670829,102.914741 C97.2884732,105.78103 97.1527578,108.783041 97.6826658,111.722065 C97.978342,113.307807 97.361144,114.923155 96.0650813,115.955653 C94.7690186,116.98815 92.9925284,117.279713 91.4091636,116.719797 C89.8257988,116.159881 88.6779848,114.834212 88.4009132,113.245417 C87.4041453,107.721906 88.0527005,102.042451 90.272804,96.8531055 C90.9622815,95.1737485 92.6380912,94.0506088 94.5283141,94.001032 L94.5290989,94.0017806 C95.2668454,93.981993 95.9861051,94.1276266 96.6357283,94.4137681 Z M100.226758,82.811665 C102.904178,82.0418539 105.403675,80.7606578 107.569391,79.0338862 C108.33733,78.4016651 109.306598,78.0381459 110.318365,78.0028978 C112.242006,77.9352963 113.994543,79.0560177 114.667579,80.7841567 C115.340615,82.5122957 114.7828,84.4592301 113.283266,85.6158021 C109.253213,88.828373 104.414449,90.9611546 99.2588397,91.8064963 C98.7860336,91.9459103 98.2861202,92.0127658 97.7766595,91.9979865 C97.7708945,91.9978192 97.7651314,91.9976416 97.7593703,91.9974537 C96.1673007,92.0501267 94.6487243,91.2827558 93.8006962,89.9609368 C93.5302807,89.5394498 93.3421416,89.0830406 93.2373956,88.6126212 C89.0230656,81.9249343 82.3979353,76.9250142 74.591096,74.5754061 C72.4017028,73.9488202 71.0316434,71.8692944 71.3829597,69.7059807 C71.734276,67.5426671 73.6990133,65.9603229 75.9835959,66.0007577 L75.9828341,66.0007577 C76.4411908,66.0085444 76.8957166,66.0823586 77.3311519,66.2197221 C86.7649092,69.0594655 94.8429629,74.9395183 100.226758,82.811665 Z M89.2665051,86.900866 C89.7765114,87.2784794 90.2070693,87.763065 90.5204815,88.3319428 C90.8959609,89.0134797 91.0753237,89.7652174 91.0609795,90.5128695 C91.0754014,91.257228 90.8940661,92.0079726 90.5100897,92.6907348 C90.3551647,92.9664985 90.1719864,93.2224371 89.9649436,93.4558138 C85.8730923,100.462669 84.5936988,108.71547 86.3953775,116.605994 C86.7480515,118.150941 86.2294984,119.762176 85.035052,120.832762 C83.8406057,121.903348 82.1517309,122.270637 80.6046106,121.796275 C79.0574902,121.321914 77.8871686,120.077968 77.5344946,118.533021 C75.4217852,109.273563 76.6415344,99.6226726 80.9258949,91.1836048 C78.7760459,89.1491669 76.1944805,87.5686004 73.3453306,86.5576263 C71.2688793,85.8536387 70.007671,83.8262665 70.3434791,81.7321977 C70.6792872,79.6381289 72.5169029,78.0710768 74.7172607,78.0023951 L74.7180233,78.0023951 C75.329582,77.9829754 75.9389759,78.0818095 76.5101498,78.2930498 C81.4713205,80.0537349 85.8648307,83.0226841 89.2665051,86.900866 Z M17.8181993,0.612888124 L17.8192378,0.612888124 C21.9720063,0.609903165 25.9098153,2.25461587 28.8465569,5.06744273 L33.3461683,9.37772429 L37.839549,5.06744273 C52.4339498,-8.93500243 73.7305182,8.73496301 63.4114232,25.8746006 C56.3852587,37.5447974 48.7038312,41.2242575 33.3388991,51 C17.9781209,41.2242575 10.2977318,37.5447974 3.2736442,25.8755956 C-3.61025242,14.4372307 4.03586778,0.622837989 17.8181993,0.612888124 Z" id="Combined-Shape" stroke="#C2352B" stroke-width="4" fill="#F44336" fill-rule="nonzero" stroke-linecap="round" stroke-linejoin="round"></path>
            <path d="M104.044402,103 C105.283956,103 106.472741,103.474106 107.349238,104.318019 C108.225736,105.161933 108.718147,106.306526 108.718147,107.5 C108.718147,109.985281 106.62564,112 104.044402,112 C101.463163,112 99.3706564,109.985281 99.3706564,107.5 C99.3706564,105.014719 101.463163,103 104.044402,103 Z M72.6651296,90.0050191 C73.5593879,89.964322 74.4469693,90.1717939 75.2223076,90.6027586 C76.2960257,91.1993812 77.0795644,92.1823167 77.4005029,93.3352665 C77.7214415,94.4882163 77.5534818,95.7167057 76.9335839,96.7504009 C76.3136882,97.7839875 75.2927242,98.5381081 74.0953257,98.8468403 C72.8979273,99.1555725 71.6221951,98.9936222 70.5488176,98.396622 C68.3143861,97.1537308 67.5490111,94.4023399 68.8390991,92.2504797 C69.6343697,90.9237439 71.0759798,90.0776768 72.6651296,90.0050191 Z M99.7791013,70.0012665 L99.7798801,70.0012665 C101.488363,69.9623066 103.08266,70.8246379 103.937232,72.2499152 C105.227035,74.4021517 104.461386,77.1538334 102.226939,78.3965715 C101.153689,78.9936217 99.8781096,79.1555855 98.6808542,78.8468275 C97.4835988,78.5380695 96.4627568,77.7838858 95.8429352,76.7502127 C95.2227994,75.7164544 95.0546029,74.4877492 95.3753653,73.3345328 C95.6961277,72.1813164 96.4795592,71.1981066 97.5532282,70.6013062 C98.2313034,70.2249377 98.9966748,70.0186128 99.7791013,70.0012665 Z M99.0962992,83 C99.7136674,83.8550389 100.294742,84.7317568 100.838214,85.6281785 C101.677943,86.9799813 101.648337,88.6452377 100.761002,89.9710962 C99.8920647,91.2708709 98.3331069,92.0440765 96.6741944,91.9980544 C95.015282,91.9520324 93.5098894,91.0938146 92.7278083,89.7482369 C92.602724,89.5395724 92.467602,89.3380054 92.3371128,89.1328897 C91.8989784,87.9218448 92.074847,86.5940151 92.8162984,85.5149787 C93.5577499,84.4359424 94.7866063,83.719472 96.1645388,83.5628262 C97.1582643,83.4379115 98.1373194,83.2484101 99.0962992,83 Z M86.5034243,86.001733 C87.7652978,86.0352622 88.9598668,86.5546699 89.8173649,87.4426598 C89.8877577,87.5288755 89.9659721,87.6090936 90.0363649,87.696059 C90.1045819,87.7778189 90.1698002,87.8618367 90.2319007,87.9479588 C90.4095813,88.1949957 90.5610286,88.4584537 90.6839795,88.7343959 C90.806357,89.0077145 90.9001519,89.2919933 90.9639867,89.5830583 C90.9645104,89.5855569 90.9650318,89.5880559 90.965551,89.5905553 C90.9660795,89.5950528 90.9666009,89.599551 90.9671153,89.60405 C90.9970438,89.7438674 91.0200126,89.884971 91.0359439,90.0268818 C91.0364685,90.0298801 91.0369899,90.0328789 91.0375082,90.0358782 C91.0375137,90.0398766 91.0375137,90.043875 91.0375082,90.0478734 C91.0530102,90.1933508 91.061102,90.3394663 91.0617546,90.4856992 C91.0622181,90.6326334 91.0551704,90.7795012 91.0406367,90.9257742 C91.0406389,90.9282732 91.0406389,90.9307722 91.0406367,90.9332712 C91.0401216,90.9375202 91.0396002,90.9417685 91.0390725,90.9460161 C91.0240781,91.0868736 91.0021536,91.2269739 90.9733724,91.3658491 C90.9728573,91.3700981 90.9723359,91.3743464 90.9718081,91.378594 C90.9702613,91.3855948 90.968697,91.3925921 90.9671153,91.3995857 C90.940186,91.5263247 90.9075664,91.6518915 90.8693474,91.775936 C90.8585468,91.8095475 90.8473353,91.8430365 90.8357152,91.876396 C90.7993335,91.9853008 90.7586325,92.0928361 90.7137009,92.1987678 C90.699733,92.2301607 90.6853927,92.2614003 90.670683,92.2924805 C90.6243495,92.3957119 90.5739963,92.4972428 90.5197294,92.5968594 C90.4996415,92.6328623 90.4790432,92.6686014 90.4579401,92.7040667 C89.6822097,94.0283095 88.2617263,94.8879434 86.6808639,94.9898397 C85.1000015,95.091736 83.5722343,94.4221351 82.6185193,93.2093657 C82.0201007,92.4722547 81.3710449,91.7742318 80.6756757,91.1199469 C81.1843033,90.1365708 81.7330081,89.1727119 82.3205227,88.2305963 C83.1851428,86.8107955 84.7889622,85.9561987 86.5034243,86.001733 Z M94.845261,94.0019447 C96.3849058,94.0470982 97.8022826,94.8212005 98.633245,96.0707573 C99.4642073,97.3203141 99.6017372,98.8843974 99.0007979,100.250819 C98.6344683,101.118496 98.3288484,102.00883 98.0859886,102.915846 C96.9518117,102.981048 95.8121896,103.014773 94.668678,102.993789 C92.9628511,102.986623 91.3969572,102.083464 90.5847078,100.638282 C89.9971007,99.5910581 89.8645016,98.3620813 90.2159837,97.2208119 C90.2657692,97.0986524 90.3054421,96.973495 90.3567834,96.8513354 C90.5674018,96.3332089 90.8760089,95.8572446 91.2669253,95.4476245 C91.3695523,95.3401997 91.4775489,95.2376541 91.5905313,95.140352 C91.5972559,95.1345875 91.6039977,95.1288417 91.6107567,95.1231147 C91.7173751,95.0328568 91.8282112,94.9473312 91.9429196,94.8668045 C91.9596924,94.8549547 91.9765473,94.8432132 91.9934831,94.8315805 C92.1003729,94.7584491 92.2104136,94.689689 92.3233123,94.6254831 C92.35192,94.6094503 92.3807039,94.593711 92.4096591,94.5782681 C92.5035746,94.5268684 92.5993139,94.478625 92.6967038,94.4336251 C92.7567975,94.4063998 92.8174875,94.3804131 92.8787322,94.3556828 C92.9544098,94.3245103 93.0309299,94.2952717 93.1082124,94.2679977 C93.1911948,94.2399918 93.274982,94.2142506 93.3594738,94.1908049 C93.4143975,94.1740828 93.4696378,94.1583418 93.5251663,94.1435898 C93.6311444,94.1174952 93.7380419,94.094998 93.8456607,94.0761397 C93.8844652,94.0689191 93.9233633,94.0621735 93.9623456,94.0559047 C94.0861633,94.0368389 94.2107282,94.0225879 94.3357372,94.0131863 C94.3590641,94.0117684 94.3824017,94.0105193 94.4057481,94.0094391 C94.5520489,94.000292 94.6987159,93.9977911 94.845261,94.0019447 Z" id="Combined-Shape" fill="#FFFFFF"></path>
            <path d="M53.6947659,55.5244507 C52.2793509,55.5244507 52.2793509,51.4415081 53.6947659,51.4415081 L60.360746,51.4415081 L60.360746,45.0287453 C60.360746,43.6570849 64.6382133,43.6570849 64.6382133,45.0287453 L64.6382133,51.4425094 L71.3052341,51.4425094 C72.7206491,51.4425094 72.7206491,55.5254519 71.3052341,55.5254519 L64.6382133,55.5254519 L64.6382133,61.9712547 C64.6382133,63.3429151 60.360746,63.3429151 60.360746,61.9712547 L60.360746,55.5254519 L53.6947659,55.5244507 Z" id="Shape" fill="#FFFFFF" fill-rule="nonzero"></path>
        </g>
    </g>
</svg>
