<svg width="262" height="206" xmlns="http://www.w3.org/2000/svg">
  <path d="M197.004 44.373c-10.862-8.471-20.01-18.673-30.719-27.31-5.353-4.318-11.117-8.254-17.444-11.227-6.33-2.973-13.251-4.97-20.307-5.299-13.453-.625-26.327 4.792-37.494 11.581-11.17 6.79-21.257 15.057-32.842 21.234-9.866 5.261-20.663 8.92-30.614 14.04-9.956 5.121-19.345 12.072-23.962 21.695-4.675 9.747-3.847 21.341.713 31.254 4.558 9.912 12.567 18.257 21.715 24.974 18.294 13.435 40.972 20.708 60.146 33.043 13.87 8.92 25.657 20.324 39.012 29.89 6.677 4.783 13.782 9.122 21.48 12.31 7.701 3.189 16.032 5.21 24.43 5.248 14.408.063 28.211-5.74 39.406-13.965 11.197-8.228 20.085-18.784 28.45-29.504 6.86-8.798 13.503-17.872 17.838-27.968 4.342-10.096 6.262-21.384 3.445-32.017-1.799-6.787-5.466-13.1-10.119-18.641-4.65-5.543-10.273-10.344-16.237-14.684-11.93-8.683-25.292-15.604-36.894-24.654h-.003z" fill="#FFF" fill-rule="nonzero"/>
</svg>
