<svg width="245" height="190" xmlns="http://www.w3.org/2000/svg">
  <path d="M155.453 184.18c9.658 1.879 19.259 4.512 28.99 5.358 9.727.844 19.766-.206 28.28-5.333 10.785-6.496 18.102-18.973 22.23-32.372 4.128-13.398 5.43-27.84 6.812-42.106 1.803-18.617 3.786-37.534.95-56.189-1.418-9.326-4.06-18.517-8.311-26.701-4.249-8.187-10.153-15.341-17.293-20.003-8.283-5.408-17.93-7.281-27.22-6.663-9.287.621-18.275 3.62-26.88 7.44-17.214 7.642-33.52 18.713-51.898 21.664-18.429 2.96-37.3-2.518-56.014-3.308-9.357-.395-18.824.418-27.552 3.955-8.732 3.536-16.713 9.981-21.5 19.163-5.01 9.608-6.21 21.639-4.58 33.005 1.629 11.367 5.915 22.14 11.22 32.008 11.468 21.334 28.093 39.153 47.607 49.642 29.678 15.954 63.225 14.22 95.161 20.44h-.002z" fill="#FFF" fill-rule="nonzero"/>
</svg>
