<svg height="32" viewBox="0 0 32 32.000002" width="32" xmlns="http://www.w3.org/2000/svg"><path d="m.75.75h30.5v30.5h-30.5z" style="fill:#fff;stroke:#fff;stroke-width:1.5;stroke-linecap:round;stroke-linejoin:round;stroke-dashoffset:1.3"/><g transform="translate(-135.283191 1.552203)"><g stroke-linecap="round" stroke-linejoin="round"><path d="m159.30242-.17229c4.22036.259706 4.7907 2.283806 1.30178 4.619933-1.84334 1.23427-4.48332 2.330355-7.24874 3.093428l-1.052-.833464-.75001 3.000001-1.24998-5.000002-1.00479 3.689557c-1.1053.15882-2.17747.247388-3.17187.252746-4.6456.02503-5.98903-1.774665-3.06633-4.107747" fill="none" stroke="#000" stroke-dashoffset="1.3" stroke-width=".5" transform="translate(0 10)"/><path d="m147.26172 7.667969c-3.58872.0028-5.57944 3.758087-3.78711 6.867187 1.82885 3.172452 3.82885 4.172452 7.82812 6.830078 4.00073-2.657626 6.00073-3.657626 7.83008-6.830078 2.68666-4.659204-2.85833-9.462469-6.6582-5.65625l-1.16992 1.171875-1.17188-1.171875c-.76464-.764637-1.78973-1.211792-2.87109-1.210937z" fill="none" stroke="#fff" stroke-width="1.5"/><path d="m147.26172 7.667969c-3.58872.0028-5.57944 3.758087-3.78711 6.867187 1.82885 3.172452 3.82885 4.172452 7.82812 6.830078 4.00073-2.657626 6.00073-3.657626 7.83008-6.830078 2.68666-4.659204-2.85833-9.462469-6.6582-5.65625l-1.16992 1.171875-1.17188-1.171875c-.76464-.764637-1.78973-1.211792-2.87109-1.210937z" fill="#f44336" fill-rule="evenodd" stroke="#000" stroke-width=".5"/></g><path d="m156.17381 7.5591251v.2226563h.42383v-.1171875c-.14051-.039499-.27927-.081552-.42383-.1054688zm-9.73632.1875c-.059.010201-.116.022834-.17383.035156h.17383zm-.42188.6699219c-.11515 0-.21611.042027-.30078.125-.083.082973-.12305.181988-.12305.298828v1.056641c0 .11684.0401.217808.12305.300781.0847.08297.18563.125.30078.125h.42383c.11515 0 .2139-.04203.29687-.125.083-.08467.125-.185635.125-.300781v-1.056641c0-.115147-.042-.213902-.125-.296875-.083-.084667-.18172-.126953-.29687-.126953zm2.75 0-.42187.210938v.21289h.21093v1.480469h.42383v-1.904297zm5.08008 0-.42188.210938v.21289h.21094v1.480469h.42383v-1.904297zm2.33008 0c-.11515 0-.21612.042027-.30078.125-.083.082973-.125.181988-.125.298828v1.056641c0 .11684.042.217808.125.300781.0847.08297.18563.125.30078.125h.42383c.11514 0 .2139-.04203.29687-.125.083-.08467.125-.185635.125-.300781v-1.056641c0-.115147-.042-.213902-.125-.296875-.083-.084667-.18173-.126953-.29687-.126953zm-9.94922.210938c.11008-.000001.18047.058941.21094.175781l-.42188.755859v-.71875c0-.059267.0198-.107797.0605-.148437.0423-.042334.0928-.064453.15039-.064453zm10.16016 0c.11008-.000001.17851.058941.20898.175781l-.41992.755859v-.71875c0-.059267.0199-.107797.0605-.148437.0423-.042334.0928-.064453.1504-.064453zm2.11718.175781v.037109h.0371c-.0122-.012597-.0248-.02466-.0371-.037109zm.21094.214843v1.302735h.42383v-.726563c-.12749-.203776-.26812-.396378-.42383-.576172zm-14.81641.142579c-.15749.180875-.29838.374089-.42382.578125v.582031h.42382zm2.54102.017578v.71875c0 .057573-.022.108057-.0644.15039-.0406.04233-.0892.06445-.14844.06445-.0576 0-.10509-.0164-.14063-.04687-.0339-.03048-.0563-.073287-.0664-.13086l.41992-.755859zm10.16016 0v.71875c0 .057573-.0221.108057-.0645.15039-.0406.04233-.0911.06445-.15039.06445-.0576 0-.10314-.0164-.13867-.04687-.0339-.03048-.0563-.073287-.0664-.13086l.41993-.755859zm-4.65821.234375-.42187.423828v.060547c0 .057573-.0221.108057-.0645.15039-.0406.04233-.0892.06445-.14843.06445-.0576 0-.10509-.0164-.14063-.04687-.0339-.03048-.0563-.073287-.0664-.13086l.0312-.05664-.46094-.460938v.480469c0 .11684.042.217808.125.300781.0847.08297.18563.125.30078.125h.42383c.11514 0 .2139-.04203.29687-.125.083-.08467.125-.185635.125-.300781v-.484375zm-8.46679 1.544922c-.11515 0-.21417.04007-.29883.123046-.083.08297-.125.183942-.125.300782v1.05664c0 .11684.042.215855.125.298828.0847.08297.18368.125.29883.125h.42382c.11515.000001.21586-.04203.29883-.125.083-.08467.12305-.183681.12305-.298828v-1.05664c0-.115147-.0401-.213902-.12305-.296875-.083-.08467-.18368-.126953-.29883-.126953zm2.75 0-.42188.208984v.214844h.21094v1.480468h.42383v-1.904296zm2.33007 0c-.11514 0-.21416.04007-.29882.123046-.083.08297-.125.183942-.125.300782v1.05664c0 .11684.042.215855.125.298828.0847.08297.18368.125.29882.125h.42383c.11515.000001.2139-.04203.29688-.125.083-.08467.125-.183681.125-.298828v-1.05664c0-.115147-.042-.213902-.125-.296875-.083-.08467-.18173-.126953-.29688-.126953zm2.75 0-.42187.208984v.214844h.21094v1.480468h.42382v-1.904296zm2.33008 0c-.11514 0-.21416.04007-.29883.123046-.083.08297-.125.183942-.125.300782v1.05664c0 .11684.042.215855.125.298828.0847.08297.18369.125.29883.125h.42383c.11515.000001.2139-.04203.29688-.125.083-.08467.125-.183681.125-.298828v-1.05664c0-.115147-.042-.213902-.125-.296875-.083-.08467-.18173-.126953-.29688-.126953zm2.75 0-.42187.208984v.214844h.21093v1.480468h.42383v-1.904296zm2.33008 0c-.11515 0-.21416.04007-.29883.123046-.083.08297-.125.183942-.125.300782v1.05664c0 .11684.042.215855.125.298828.0847.08297.18368.125.29883.125h.42383c.11515.000001.2139-.04203.29687-.125.083-.08467.125-.183681.125-.298828v-1.05664c0-.115147-.042-.213902-.125-.296875-.083-.08467-.18172-.126953-.29687-.126953zm-15.0293.210937c.11008 0 .18047.05699.21094.173828l-.42187.757813v-.71875c0-.05927.0199-.109751.0605-.150391.0423-.04233.0928-.0625.15039-.0625zm5.08008 0c.11008 0 .18047.05699.21094.173828l-.42188.757813v-.71875c0-.05927.0199-.109751.0606-.150391.0423-.04233.0928-.0625.15039-.0625zm5.08008 0c.11008 0 .18047.05699.21094.173828l-.42188.757813v-.71875c0-.05927.0198-.109751.0606-.150391.0423-.04233.0928-.0625.15039-.0625zm5.08008 0c.11008 0 .18047.05699.21094.173828l-.42188.757813v-.71875c0-.05927.0198-.109751.0606-.150391.0423-.04233.0928-.0625.15039-.0625zm-15.02735.550781v.71875c0 .05757-.0202.108058-.0625.150391-.0406.04233-.0911.0625-.15039.0625-.0576 0-.10314-.01444-.13867-.04492-.0339-.03048-.0563-.07524-.0664-.132812l.41796-.753907zm5.08008 0v.71875c0 .05757-.0202.108058-.0625.150391-.0406.04233-.0911.0625-.15039.0625-.0576 0-.10314-.01444-.13867-.04492-.0339-.03048-.0563-.07524-.0664-.132812l.41797-.753907zm5.08008 0v.71875c0 .05757-.0202.108058-.0625.150391-.0406.04233-.0911.0625-.15039.0625-.0576 0-.10509-.01444-.14063-.04492-.0339-.03048-.0543-.07524-.0644-.132812l.41797-.753907zm5.08008 0v.71875c0 .05757-.0202.108058-.0625.150391-.0406.04233-.0911.0625-.15039.0625-.0576 0-.10509-.01444-.14063-.04492-.0339-.03048-.0543-.07524-.0645-.132812l.41797-.753907zm-15.45313 1.777344-.42187.210938v.21289h.21094v.615235c.13895.241044.28209.448374.42382.666015v-1.705078zm2.33008 0c-.11515 0-.21611.04203-.30078.125-.083.08297-.12305.181988-.12305.298828v1.056641c0 .11684.0401.217808.12305.300781.0847.08297.18563.125.30078.125h.42383c.11515 0 .2139-.04203.29687-.125.083-.08467.125-.185634.125-.300781v-1.056641c0-.115146-.042-.213901-.125-.296875-.083-.08467-.18172-.126953-.29687-.126953zm2.75 0-.42187.210938v.21289h.21093v1.480469h.42383v-1.904297zm2.33008 0c-.11515 0-.21612.04203-.30078.125-.083.08297-.125.181988-.125.298828v1.056641c0 .11684.042.217808.125.300781.0847.08297.18563.125.30078.125h.42383c.11514 0 .2139-.04203.29687-.125.083-.08467.125-.185634.125-.300781v-1.056641c0-.115146-.042-.213901-.125-.296875-.083-.08467-.18173-.126953-.29687-.126953zm2.75 0-.42188.210938v.21289h.21094v1.480469h.42383v-1.904297zm2.33008 0c-.11515 0-.21612.04203-.30078.125-.083.08297-.125.181988-.125.298828v1.056641c0 .11684.042.217808.125.300781.0847.08297.18563.125.30078.125h.42383c.11514 0 .2139-.04203.29687-.125.083-.08467.125-.185634.125-.300781v-1.056641c0-.115146-.042-.213901-.125-.296875-.083-.08467-.18173-.126953-.29687-.126953zm2.75 0-.42188.210938v.21289h.21094v1.271485c.13967-.214812.28098-.418682.41797-.65625.002-.004.004-.0078.006-.01172v-1.027344h-.21289zm-12.69922.210938c.11008 0 .18047.05894.21094.175781l-.42188.755859v-.71875c0-.05927.0198-.107797.0605-.148437.0423-.04233.0928-.06445.15039-.06445zm5.08008 0c.11008 0 .17851.05894.20898.175781l-.41992.755859v-.71875c0-.05927.0199-.107797.0606-.148437.0423-.04233.0928-.06445.15039-.06445zm5.08008 0c.11008 0 .17851.05894.20898.175781l-.41992.755859v-.71875c0-.05927.0199-.107797.0605-.148437.0423-.04233.0928-.06445.1504-.06445zm-9.94727.550781v.71875c0 .05757-.022.108057-.0644.150391-.0406.04233-.0892.06445-.14844.06445-.0576 0-.10509-.01641-.14063-.04687-.0339-.03048-.0563-.07329-.0664-.13086l.41992-.755859zm5.08008 0v.71875c0 .05757-.0221.108057-.0645.150391-.0406.04233-.0892.06445-.14843.06445-.0576 0-.10509-.01641-.14063-.04687-.0339-.03048-.0563-.07329-.0664-.13086l.41992-.755859zm5.08008 0v.71875c0 .05757-.0221.108057-.0645.150391-.0406.04233-.0911.06445-.15039.06445-.0576 0-.10314-.01641-.13867-.04687-.0339-.03048-.0563-.07329-.0664-.13086l.41993-.755859zm-10.375 1.777344-.42188.210937v.214844h.21094v1.197266c.10777.09504.21602.190254.32812.283203h.0957v-1.90625h-.21289zm5.08007 0-.42187.210937v.214844h.21094v1.480469h.42382v-1.90625zm5.08008 0-.42187.210937v.214844h.21093v1.480469h.0918c.1134-.09401.22307-.190945.33203-.28711v-1.61914zm-7.83008.002c-.11514 0-.21416.04007-.29882.123047-.083.08297-.125.183941-.125.300781v1.05664c0 .116842.042.215855.125.298829.0847.08297.18368.125.29882.125h.42383c.11515 0 .2139-.04203.29688-.125.083-.08467.125-.183681.125-.298829v-1.05664c0-.115147-.042-.213902-.125-.296875-.083-.08467-.18173-.126953-.29688-.126953zm5.08008 0c-.11514 0-.21416.04007-.29883.123047-.083.08297-.125.183941-.125.300781v1.05664c0 .116842.042.215855.125.298829.0847.08297.18369.125.29883.125h.42383c.11515 0 .2139-.04203.29688-.125.083-.08467.125-.183681.125-.298829v-1.05664c0-.115147-.042-.213902-.125-.296875-.083-.08467-.18173-.126953-.29688-.126953zm-4.86914.210937c.11008 0 .18047.05699.21094.173828l-.42188.757813v-.71875c0-.05927.0199-.109751.0606-.150391.0423-.04233.0928-.0625.15039-.0625zm5.08008 0c.11008 0 .18047.05699.21094.173828l-.42188.757813v-.71875c0-.05927.0198-.109751.0606-.150391.0423-.04233.0928-.0625.15039-.0625zm-4.86719.550781v.71875c0 .05757-.0202.108058-.0625.150391-.0406.04233-.0911.0625-.15039.0625-.0576 0-.10314-.01444-.13867-.04492-.0339-.03048-.0563-.07524-.0664-.132812l.41797-.753907zm5.08008 0v.71875c0 .05757-.0202.108058-.0625.150391-.0406.04233-.0911.0625-.15039.0625-.0576 0-.10509-.01444-.14063-.04492-.0339-.03048-.0543-.07524-.0644-.132812l.41797-.753907zm-5.29297 1.777344-.42187.210938v.21289h.21093v.558594c.12857.0857.28983.191025.42383.279297v-1.261719zm2.33008 0c-.11515 0-.21612.04203-.30078.125-.083.08297-.125.181988-.125.298828v1.056641c0 .11684.042.217808.125.300781.0847.08297.18563.123047.30078.123047h.42383c.11514 0 .2139-.04007.29687-.123047.083-.08467.125-.185634.125-.300781v-1.056641c0-.115146-.042-.213901-.125-.296875-.083-.08467-.18173-.126953-.29687-.126953zm2.75 0-.42188.210938v.21289h.21094v.833985c.13426-.08843.29503-.193447.42383-.279297v-.978516zm-2.53906.210938c.11008 0 .17851.05894.20898.175781l-.41992.755859v-.71875c0-.05927.0199-.107797.0606-.148437.0423-.04233.0928-.06445.15039-.06445zm.21289.550781v.71875c0 .05757-.0221.108057-.0645.150391-.0406.04233-.0892.06445-.14843.06445-.0576 0-.10509-.01639-.14063-.04687-.0339-.03048-.0563-.07329-.0664-.13086l.41992-.755859zm-.21485 1.777344-.21679.109375c.0793.05244.13394.08686.21484.140625.0809-.05373.13558-.08822.21484-.140625v-.109375z" fill-opacity=".25098" fill-rule="evenodd"/><g stroke-linejoin="round"><path d="m162.61141 10.920491c.70481.863061.0643 2.140108-2.00721 3.527152-1.84334 1.234271-4.48332 2.330355-7.24874 3.093428l-1.052-.833464-.75001 3.000001-1.24998-5.000002-1.00479 3.689557c-1.1053.15882-2.17747.247388-3.17187.252746-2.5779.01389-4.13897-.534105-4.5185-1.423328" fill="none" stroke="#000" stroke-dashoffset="1.3" stroke-linecap="round" stroke-width=".5"/><path d="m163.84339 11.335052c-1.08052.329215-2.17374.826073-2.9759 1.622174.38299.113096.85694.06663 1.14898.339286.29206.272692.27887.749358.4183 1.124036.76708-.830034 1.18207-1.977628 1.40862-3.085496z" fill-rule="evenodd" stroke="#fff" stroke-width="1.5"/><path d="m163.84339 11.335052c-1.08052.329215-2.17374.826073-2.9759 1.622174.38299.113096.85694.06663 1.14898.339286.29206.272692.27887.749358.4183 1.124036.76708-.830034 1.18207-1.977628 1.40862-3.085496z" fill-rule="evenodd" stroke="#000" stroke-width=".5"/></g><circle cx="162.61964" cy="12.633092" fill="#fff" r=".375"/></g></svg>