<svg height="16" viewBox="0 0 28 16.000001" width="28" xmlns="http://www.w3.org/2000/svg"><path d="m18.205078.81445312c-1.07663.01439301-2.201386.44973098-3.191406 1.44140628l-.992188.9921875-.99414-.9941407c-.80918-.8091743-1.898428-1.28411267-3.0488284-1.28320308-1.88153.00147001-3.3677293.99542298-4.1308594 2.39843748-.7631399 1.4030144-.8109568 3.216774.1269532 4.84375.79637 1.381438 1.6414275 2.3539564 2.6484375 3.2324214.0744.000645.1402968.00626.2167969.00586.8042499-.0043 1.6937272-.09298 2.5917972-.205078l.865234-3.183594a.750075.750075 0 0 1 1.451172.015625l.523437 2.089844.021485-.089844a.750075.750075 0 0 1 1.193359-.40625l.732422.580078c2.28732-.6589779 4.445092-1.5432516 6.070312-2.5117186 1.05389-2.274685.331092-4.5558183-1.173828-5.8457032-.80462-.6896512-1.833526-1.09447118-2.910156-1.08007808zm4.533203 2.38085938c.09.179967.168642.3655276.238281.5566406.561101.08786 1.059716.201335 1.416016.359375.34483.152954.576169.3286571.730469.5175781.003-.0012.004812-.0027062.007812-.0039062.15253-.06701.303242-.1368985.457032-.1953125.002-.000939.004812-.0009071.007812-.0019531-.006-.0084-.015584-.0151375-.021484-.0234375-.0164-.03048-.029935-.0618538-.052735-.0898438a.250025.250025 0 0 0 -.109375-.078125c-.20887-.225242-.468316-.4276312-.816406-.5820312-.48815-.21652-1.108022-.3692944-1.857422-.4589844zm3.814453 1.4433594c-.0218.000436-.043453.0036656-.064453.0097656-1.10263.335952-2.234228.8441289-3.080078 1.6835937-.13576.133949-.077601.3644738.105469.4179688.22727.06711.449124.0817404.634766.1152344.185639.0335.322532.0805596.414062.1660156.0916.08548.148953.2191837.195312.4023438.046301.183161.077407.4047221.160157.6269531.0652.174556.291607.2189882.417969.0820312.814529-.88138 1.236978-2.0717001 1.46875-3.2050781.031399-.157385-.091504-.3031621-.251954-.2988281zm-1.24414 1.171875a.375.375 0 0 1 .001953 0 .375.375 0 0 1 .025391 0 .375.375 0 0 1 .375.375.375.375 0 0 1 -.375.375.375.375 0 0 1 -.375-.375.375.375 0 0 1 .347656-.375zm-1.5 1.5c-.20348.16001-.380733.3175569-.626953.4824219-1.7821 1.1932679-4.358747 2.2653822-7.060547 3.0214842l-.945313-.75a.250025.250025 0 0 0 -.398437.134766l-.50586 2.027343-1.007812-4.0273432a.250025.250025 0 0 0 -.433594-.1015626.250025.250025 0 0 0 -.015625.0214844.250025.250025 0 0 0 -.035156.0761719l-.958985 3.5214845c-1.036349.142598-2.0480451.231314-2.9785151.236328-1.70514.0092-2.9308725-.254603-3.6328125-.638672-.0152-.0086-.0302219-.01663-.0449219-.025391-.0916-.05255-.1718906-.109567-.2441406-.166015-.0419-.03386-.0779013-.06855-.1132813-.103516-.037-.03568-.0757987-.07068-.1054687-.107422-.0514-.06387-.0911969-.129314-.1230469-.195312-.008-.01658-.0220969-.032018-.0292969-.048828-.001-.0031-.0029062-.006666-.0039062-.009766a.250025.250025 0 0 0 -.0078125-.013672c-.0932-.236791-.0765-.497325.0625-.8222654.15572-.363817.4953387-.7916111 1.0117187-1.2519531-.0227-.03864-.0477125-.0682109-.0703125-.1074219-.0656-.113697-.115035-.2302531-.171875-.3457031-.60295.519829-1.0196556 1.0217926-1.2285156 1.5097656-.1703.3979129-.1903556.7964509-.0722656 1.1523439a.250025.250025 0 0 0 0 .005859.250025.250025 0 0 0 .0273437.091797c.0208.04885.0578844.0903.0839844.136719.031.05583.0525969.115509.0917969.167969.009.01257.0234031.022766.0332031.035156.0346.04392.0774075.08357.1171875.125.0698.07362.1439556.144842.2285156.210937.0262.02002.0544313.039284.0820313.058594.11501.08241.2416993.158508.3808593.228516.0135.0066.0273157.013011.0410157.019531.4967.241658 1.1370719.40941 1.9199219.501953.11527.01363.2439843.02079.3652343.03125.43409.03922.89523.063297 1.40625.060547 1.00827-.0054 2.0902079-.09566 3.2050779-.255859a.250025.250025 0 0 0 .205078-.181641l.753907-2.765625 1.017578 4.070312a.250025.250025 0 0 0 .041015.089844.250025.250025 0 0 0 .017579.019532.250025.250025 0 0 0 .201171.082031.250025.250025 0 0 0 .048829-.007813.250025.250025 0 0 0 .177734-.183594l.65625-2.623046.748047.591796a.250025.250025 0 0 0 .220703.044922c2.78526-.768549 5.444085-1.8674036 7.322266-3.1249996.30697-.205544.576348-.407766.824218-.609375-.0002-.000979-.001953-.0027063-.001953-.0039063-.002-.0092-.007766-.0304825-.009765-.0390625-.037801-.149306-.070135-.1764162-.052735-.1601562.0174.01629-.009006-.0117825-.160156-.0390625-.0488-.0088-.146906-.0288157-.222656-.0410157-.01-.0015999-.020297-.0045593-.029297-.0058593zm-3.212891 2.9824221c-1.34392.586448-2.808465 1.105727-4.322265 1.523437a.750075.750075 0 0 1 -.666016-.134765l-.140625-.111329-.46875 1.871094a.750075.750075 0 0 1 -1.455078 0l-.552735-2.21289-.25.917968a.750075.750075 0 0 1 -.617187.544922c-.55511.07976-1.102552.139834-1.638672.183594.96505.666468 2.065904 1.367742 3.396484 2.251953.084.05598.193364.05598.277344 0 2.98632-1.983767 4.89026-3.066829 6.4375-4.833984z" fill="#fff" fill-rule="evenodd" transform="translate(-.000001 0)"/></svg>