<svg height="24" viewBox="0 0 76 24.000002" width="76" xmlns="http://www.w3.org/2000/svg"><g transform="translate(-136.940831 -2.445271)"><g fill-rule="evenodd"><path d="m147.26172 7.667969c-3.58872.0028-5.57944 3.758087-3.78711 6.867187 1.82885 3.172452 3.82885 4.172452 7.82812 6.830078 4.00073-2.657626 6.00073-3.657626 7.83008-6.830078 2.68666-4.659204-2.85833-9.462469-6.6582-5.65625l-1.16992 1.171875-1.17188-1.171875c-.76464-.764637-1.78973-1.211792-2.87109-1.210937z" fill="#f44336" stroke="#000" stroke-linecap="round" stroke-linejoin="round" stroke-width=".5"/><path d="m156.17322 7.560545v.220704h.42578v-.115235c-.14088-.039649-.28083-.081486-.42578-.105469zm-9.73437.185547c-.0594.010273-.11751.022729-.17578.035157h.17578zm-.42383.669922c-.11515 0-.21416.04203-.29883.125-.083.08297-.125.183941-.125.300781v1.056641c0 .11684.042.215855.125.298828.0847.08297.18368.125.29883.125h.42383c.11514 0 .2139-.04203.29687-.125.083-.08467.125-.183681.125-.298828v-1.056641c0-.115146-.042-.213901-.125-.296875-.083-.08467-.18173-.128906-.29687-.128906zm2.75 0-.42188.210938v.214843h.21094v1.480469h.42383v-1.90625zm5.08008 0-.42188.210938v.214843h.21094v1.480469h.42383v-1.90625zm2.33008 0c-.11515 0-.21612.04203-.30079.125-.083.08297-.12304.183941-.12304.300781v1.056641c0 .11684.0401.215855.12304.298828.0847.08297.18564.125.30079.125h.42382c.11515 0 .2139-.04203.29688-.125.083-.08467.125-.183681.125-.298828v-1.056641c0-.115146-.042-.213901-.125-.296875-.083-.08467-.18173-.128906-.29688-.128906zm-9.94922.210938c.11008 0 .18047.05894.21093.175781l-.42187.757812v-.71875c0-.05927.0199-.10975.0606-.15039.0423-.04233.0928-.064453.15039-.064453zm10.16015 0c.11008 0 .18047.05894.21094.175781l-.42187.757812v-.71875c0-.05927.0199-.10975.0605-.15039.0423-.04233.0928-.064453.15039-.064453zm2.11719.177734v.037109h.0371c-.0122-.012622-.0248-.024635-.0371-.037109zm.21094.212891v1.304687h.42383v-.726562c-.12756-.203896-.26803-.398238-.42383-.578125zm-14.81641.142578c-.15812.18155-.29801.377149-.42383.582031v.580078h.42383zm2.54102.019531v.71875c0 .05757-.0202.106104-.0625.148437-.0406.04233-.0911.06445-.15039.06445-.0576 0-.1051-.01639-.14063-.04687-.0339-.03048-.0543-.073286-.0644-.13086l.41797-.753906zm10.16015 0v.71875c0 .05757-.0202.106104-.0625.148437-.0406.04233-.0911.06445-.15039.06445-.0576 0-.10509-.01639-.14062-.04687-.0339-.03048-.0563-.073286-.0664-.13086l.41992-.753906zm-4.6582.232422-.42187.423828v.0625c0 .05757-.0202.106104-.0625.148437-.0406.04233-.0911.06445-.1504.06445-.0576 0-.10509-.01639-.14062-.04687-.0339-.03048-.0542-.073286-.0645-.13086h-.002l.0312-.05664-.45898-.458985v.480469c0 .11684.0401.215855.12305.298828.0847.08297.18563.125.30078.125h.42383c.11514 0 .2139-.04203.29687-.125.083-.08467.125-.183681.125-.298828v-.486328zm-8.46484 1.544922c-.11515 0-.21612.04203-.30078.125-.083.08297-.125.181988-.125.298828v1.056641c0 .116838.042.217807.125.300781.0847.08297.18563.123047.30078.123047h.42382c.11515 0 .21391-.04007.29688-.123047.083-.08467.125-.185635.125-.300781v-1.056641c0-.115147-.042-.213902-.125-.296875-.083-.08467-.18173-.126953-.29688-.126953zm2.75 0-.42188.210937v.212891h.21094v1.480469h.42383v-1.904297zm2.32812 0c-.11515 0-.21416.04203-.29883.125-.083.08297-.125.181988-.125.298828v1.056641c0 .116838.042.217807.125.300781.0847.08297.18368.123047.29883.123047h.42578c.11515 0 .2139-.04007.29688-.123047.083-.08467.125-.185635.125-.300781v-1.056641c0-.115147-.042-.213902-.125-.296875-.083-.08467-.18173-.126953-.29688-.126953zm2.75 0-.41992.210937v.212891h.21094v1.480469h.42383v-1.904297zm2.33008 0c-.11515 0-.21416.04203-.29883.125-.083.08297-.125.181988-.125.298828v1.056641c0 .116838.042.217807.125.300781.0847.08297.18368.123047.29883.123047h.42578c.11515 0 .2139-.04007.29688-.123047.083-.08467.12304-.185635.12304-.300781v-1.056641c0-.115147-.0401-.213902-.12304-.296875-.083-.08467-.18173-.126953-.29688-.126953zm2.75 0-.41992.210937v.212891h.20898v1.480469h.42578v-1.904297zm2.33008 0c-.11515 0-.21416.04203-.29883.125-.083.08297-.125.181988-.125.298828v1.056641c0 .116838.042.217807.125.300781.0847.08297.18368.123047.29883.123047h.42578c.11515 0 .2139-.04007.29687-.123047.083-.08467.12305-.185635.12305-.300781v-1.056641c0-.115147-.0401-.213902-.12305-.296875-.083-.08467-.18172-.126953-.29687-.126953zm-15.0293.210937c.11008 0 .18047.05894.21094.175782l-.42188.755859v-.71875c0-.05927.0218-.109751.0625-.150391.0423-.04233.0908-.0625.14844-.0625zm5.08008 0c.11008 0 .18047.05894.21094.175782l-.42188.755859v-.71875c0-.05927.0218-.109751.0625-.150391.0423-.04233.0908-.0625.14844-.0625zm5.08008 0c.11008 0 .18047.05894.21093.175782l-.42187.755859v-.71875c0-.05927.0218-.109751.0625-.150391.0423-.04233.0908-.0625.14844-.0625zm5.08008 0c.11008 0 .18047.05894.21093.175782l-.42187.755859v-.71875c0-.05927.0218-.109751.0625-.150391.0423-.04233.0908-.0625.14844-.0625zm-15.0254.550782v.71875c0 .05757-.0221.108057-.0644.15039-.0406.04233-.0911.0625-.15039.0625-.0576 0-.10314-.01444-.13867-.04492-.0339-.03048-.0563-.07524-.0664-.132812l.41992-.753906zm5.08008 0v.71875c0 .05757-.0222.108057-.0644.15039-.0406.04233-.0911.0625-.15039.0625-.0576 0-.10314-.01444-.13867-.04492-.0339-.03048-.0563-.07524-.0664-.132812l.41992-.753906zm5.08008 0v.71875c0 .05757-.0221.108057-.0645.15039-.0406.04233-.0911.0625-.15039.0625-.0576 0-.10314-.01444-.13867-.04492-.0339-.03048-.0563-.07524-.0664-.132812l.41992-.753906zm5.08008 0v.71875c0 .05757-.0221.108057-.0644.15039-.0406.04233-.0911.0625-.15039.0625-.0576 0-.10314-.01444-.13868-.04492-.0339-.03048-.0563-.07524-.0664-.132812l.41992-.753906zm-15.45508 1.777343-.42187.210938v.21289h.21093v.615235c.13896.241044.2821.448374.42383.666015v-1.705078zm2.33008 0c-.11515 0-.21416.04203-.29883.125-.083.08297-.125.183942-.125.300782v1.05664c0 .11684.042.215855.125.298828.0847.08297.18368.125.29883.125h.42383c.11514 0 .2139-.04203.29687-.125.083-.08467.125-.183681.125-.298828v-1.05664c0-.115147-.042-.215855-.125-.298829-.083-.08467-.18173-.126953-.29687-.126953zm2.75 0-.42188.210938v.21289h.21094v1.482422h.42383v-1.90625zm2.33008 0c-.11515 0-.21612.04203-.30078.125-.083.08297-.12305.183942-.12305.300782v1.05664c0 .11684.0401.215855.12305.298828.0847.08297.18563.125.30078.125h.42383c.11514 0 .2139-.04203.29687-.125.083-.08467.125-.183681.125-.298828v-1.05664c0-.115147-.042-.215855-.125-.298829-.083-.08467-.18173-.126953-.29687-.126953zm2.75 0-.42188.210938v.21289h.21094v1.482422h.42383v-1.90625zm2.33008 0c-.11515 0-.21612.04203-.30079.125-.083.08297-.12304.183942-.12304.300782v1.05664c0 .11684.0401.215855.12304.298828.0847.08297.18564.125.30079.125h.42382c.11515 0 .2139-.04203.29688-.125.083-.08467.125-.183681.125-.298828v-1.05664c0-.115147-.042-.215855-.125-.298829-.083-.08467-.18173-.126953-.29688-.126953zm2.75 0-.42188.210938v.21289h.21094v1.271485c.13967-.214812.28098-.418682.41797-.65625.002-.0039.004-.0078.006-.01172v-1.027344h-.21289zm-12.69922.210938c.11008 0 .18047.05894.21093.175781l-.42187.757813v-.71875c0-.05927.0199-.109751.0606-.150391.0423-.04233.0928-.06445.15039-.06445zm5.08007 0c.11008 0 .18048.05894.21094.175781l-.42187.757813v-.71875c0-.05927.0199-.109751.0605-.150391.0423-.04233.0928-.06445.15039-.06445zm5.08008 0c.11008 0 .18047.05894.21094.175781l-.42187.757813v-.71875c0-.05927.0199-.109751.0605-.150391.0423-.04233.0928-.06445.15039-.06445zm-9.94726.552734v.71875c0 .05757-.0202.106104-.0625.148438-.0406.04233-.0911.06445-.15039.06445-.0576-.000001-.1051-.01639-.14063-.04687-.0339-.03048-.0543-.07329-.0644-.13086l.41797-.753906zm5.08008 0v.71875c0 .05757-.0202.106104-.0625.148438-.0406.04233-.0911.06445-.1504.06445-.0576-.000001-.10509-.01639-.14062-.04687-.0339-.03048-.0542-.07329-.0645-.13086h-.002l.41993-.753906zm5.08007 0v.71875c0 .05757-.0202.106104-.0625.148438-.0406.04233-.0911.06445-.15039.06445-.0576-.000001-.10509-.01639-.14062-.04687-.0339-.03048-.0563-.07329-.0664-.13086l.41991-.753906zm-10.37304 1.777344-.42188.210937v.212891h.21094v1.199219c.10697.09431.21493.189005.32617.28125h.0977v-1.904297h-.21289zm2.32812 0c-.11515 0-.21416.04203-.29883.125-.083.08297-.125.181988-.125.298828v1.056641c0 .11684.042.217807.125.300781.0847.08297.18368.123047.29883.123047h.42578c.11515 0 .2139-.04007.29688-.123047.083-.08467.125-.185635.125-.300781v-1.056641c0-.115147-.042-.213902-.125-.296875-.083-.08467-.18173-.126953-.29688-.126953zm2.75 0-.41992.210937v.212891h.21094v1.480469h.42383v-1.904297zm2.33008 0c-.11515 0-.21416.04203-.29883.125-.083.08297-.125.181988-.125.298828v1.056641c0 .11684.042.217807.125.300781.0847.08297.18368.123047.29883.123047h.42578c.11515 0 .2139-.04007.29688-.123047.083-.08467.12304-.185635.12304-.300781v-1.056641c0-.115147-.0401-.213902-.12304-.296875-.083-.08467-.18173-.126953-.29688-.126953zm2.75 0-.41992.210937v.212891h.20898v1.480469h.0918c.11393-.09445.22452-.190492.33398-.28711v-1.617187zm-7.61914.210937c.11008 0 .18047.05894.21094.175782l-.42188.755859v-.71875c0-.05927.0218-.109751.0625-.150391.0423-.04233.0908-.0625.14844-.0625zm5.08008 0c.11008 0 .18047.05894.21093.175782l-.42187.755859v-.71875c0-.05927.0218-.109751.0625-.150391.0423-.04233.0908-.0625.14844-.0625zm-4.86524.550782v.71875c0 .05757-.0222.108057-.0644.15039-.0406.04233-.0911.0625-.15039.0625-.0576 0-.10314-.01444-.13867-.04492-.0339-.03048-.0563-.07524-.0664-.132812l.41992-.753907zm5.08008 0v.71875c0 .05757-.0221.108057-.0645.15039-.0406.04233-.0911.0625-.15039.0625-.0576 0-.10314-.01444-.13867-.04492-.0339-.03048-.0563-.07524-.0664-.132812l.41992-.753907zm-5.29492 1.777343-.42188.210938v.21289h.21094v.558594c.12857.0857.28982.191025.42383.279297v-1.261719zm2.33008 0c-.11515 0-.21612.04203-.30078.125-.083.08297-.12305.183942-.12305.300782v1.05664c0 .11684.0401.215855.12305.298828.0847.08297.18563.125.30078.125h.42383c.11514 0 .2139-.04203.29687-.125.083-.08467.125-.183681.125-.298828v-1.05664c0-.115147-.042-.215855-.125-.298828-.083-.08467-.18173-.126954-.29687-.126954zm2.75 0-.42188.210938v.21289h.21094v.833985c.13426-.08843.29503-.193447.42383-.279297v-.978516zm-2.53907.210938c.11008 0 .18048.05894.21094.175781l-.42187.757813v-.71875c0-.05927.0199-.109751.0605-.150391.0423-.04233.0928-.06445.15039-.06445zm.2129.552734v.71875c0 .05757-.0202.106104-.0625.148438-.0406.04233-.0911.06445-.1504.06445-.0576 0-.10509-.01639-.14062-.04687-.0339-.03048-.0542-.07329-.0645-.13086h-.002l.41993-.753906zm-.21485 1.777344-.21484.107422c.0788.05211.1325.08721.21289.140625.0817-.0543.13671-.08963.2168-.142578v-.105469z" fill-opacity=".25098"/><path d="m163.83533 11.085936c-.0218.000426-.0435.0037-.0644.0098-1.10263.335952-2.23423.844129-3.08008 1.683593-.13576.133949-.0776.364474.10547.417969.22727.06711.44912.08174.63476.115234.18564.0335.32254.08056.41407.166016.0916.08548.14895.219183.19531.402344.0463.18316.0774.404721.16016.626953.0652.174557.2916.218988.41796.08203.81453-.88138 1.23698-2.0717 1.46875-3.205078.0314-.157384-.0915-.303162-.25195-.298828zm-1.21484 1.171875a.375.375 0 0 1 .375.375.375.375 0 0 1 -.375.375.375.375 0 0 1 -.375-.375.375.375 0 0 1 .375-.375z"/></g><path d="m160.0033 9.640623c.0909.183069.18369.36428.25391.558594.56192.08787 1.06128.201164 1.41797.359375.3439.152537.57417.329246.72851.517578.15877-.06998.31642-.140517.47656-.201171-.2145-.313832-.55403-.574756-1.00195-.773438-.49143-.217977-1.11877-.37152-1.875-.460938zm1.11719 4.123047c-.19957.156539-.41587.315607-.65625.476563-1.7821 1.193269-4.35875 2.265382-7.06055 3.021484l-.94531-.75c-.14228-.113474-.35425-.04178-.39844.134766l-.50586 2.027344-1.00781-4.027344c-.0622-.251115-.41814-.253987-.48438-.0039l-.95898 3.521484c-1.03635.142598-2.04805.231315-2.97852.236328-.14205.000772-.26877-.0071-.40429-.0098-.005-.0038-.009-.0079-.0137-.01172-1.74194-.04177-2.94541-.369976-3.51758-.818359-.0416-.03428-.0783-.07008-.11328-.105469-.0318-.03109-.0658-.06176-.0918-.09375-.0519-.06431-.091-.130796-.12305-.197265-.1283-.25634-.13208-.535532.0215-.894532.1556-.363564.494-.791979 1.00976-1.251953-.0224-.03818-.046-.06865-.0684-.107422-.0655-.113697-.11503-.230253-.17187-.345703-.60295.519829-1.01966 1.021793-1.22852 1.509766-.16786.392208-.18855.784669-.0762 1.136719.00008.0019.002.004.002.0059.008.02441.0103.05024.0195.07422.004.01142.004.02148.01.0332.0208.04885.0579.0903.084.136718.031.05583.0526.11551.0918.167969.009.01257.0234.02277.0332.03516.0346.04392.0774.08357.11719.125.0698.07362.14396.144842.22852.210938.0262.02002.0544.03928.082.05859.11501.08241.2417.158507.38086.228515.0135.0066.0273.01301.041.01953.49671.241659 1.13708.40941 1.91993.501954.11527.01363.24397.02079.36523.03125.43408.03922.89522.0633 1.40625.06055.0656-.000354.13697-.0087.20313-.0098.95151-.01531 1.95955-.09631 3.00195-.246093.0984-.01438.17893-.0857.20508-.181641l.7539-2.765625 1.01758 4.070313c.0612.255812.42514.255812.48633 0l.65625-2.623047.74805.591797c.0623.04914.14417.0658.2207.04492 2.78526-.768549 5.44408-1.867402 7.32226-3.125.3069-.20549.5764-.407818.82422-.609375-.002-.01019-.009-.03347-.0117-.04297-.0378-.149306-.0701-.176421-.0527-.160157.0174.01629-.009-.01178-.16016-.03906-.0488-.0088-.15643-.03212-.22265-.04102z"/></g><g font-family="sans-serif" font-size="32" letter-spacing="0" transform="translate(-78.512857 -40.305608)" word-spacing="0"><text x="110.2889" y="52.244942"><tspan font-family="Swistblnk Monthoers" font-size="5.333333" x="110.2889" y="52.244942">Care for the Future</tspan></text><text x="110.31408" y="56.244942"><tspan font-family="Swistblnk Monthoers" font-size="4" x="110.31408" y="56.244942">Improving health bit by bit</tspan></text></g></svg>