<svg height="16" viewBox="0 0 28 16.000001" width="28" xmlns="http://www.w3.org/2000/svg"><g transform="translate(-137.283191 -6.447797)"><g stroke-linejoin="round"><path d="m159.30242-.17229c4.22036.259706 4.7907 2.283806 1.30178 4.619933-1.84334 1.23427-4.48332 2.330355-7.24874 3.093428l-1.052-.833464-.75001 3.000001-1.24998-5.000002-1.00479 3.689557c-1.1053.15882-2.17747.247388-3.17187.252746-4.6456.02503-5.98903-1.774665-3.06633-4.107747" fill="none" stroke="#000" stroke-dashoffset="1.3" stroke-linecap="round" stroke-width=".5" transform="translate(0 10)"/><path d="m147.26172 7.667969c-3.58872.0028-5.57944 3.758087-3.78711 6.867187 1.82885 3.172452 3.82885 4.172452 7.82812 6.830078 4.00073-2.657626 6.00073-3.657626 7.83008-6.830078 2.68666-4.659204-2.85833-9.462469-6.6582-5.65625l-1.16992 1.171875-1.17188-1.171875c-.76464-.764637-1.78973-1.211792-2.87109-1.210937z" fill="none" stroke="#fff" stroke-linecap="round" stroke-width="1.5"/><path d="m147.26172 7.667969c-3.58872.0028-5.57944 3.758087-3.78711 6.867187 1.82885 3.172452 3.82885 4.172452 7.82812 6.830078 4.00073-2.657626 6.00073-3.657626 7.83008-6.830078 2.68666-4.659204-2.85833-9.462469-6.6582-5.65625l-1.16992 1.171875-1.17188-1.171875c-.76464-.764637-1.78973-1.211792-2.87109-1.210937z" fill="#f44336" fill-rule="evenodd" stroke="#000" stroke-linecap="round" stroke-width=".5"/><path d="m162.61141 10.920491c.70481.863061.0643 2.140108-2.00721 3.527152-1.84334 1.234271-4.48332 2.330355-7.24874 3.093428l-1.052-.833464-.75001 3.000001-1.24998-5.000002-1.00479 3.689557c-1.1053.15882-2.17747.247388-3.17187.252746-2.5779.01389-4.13897-.534105-4.5185-1.423328" fill="none" stroke="#000" stroke-dashoffset="1.3" stroke-linecap="round" stroke-width=".5"/><path d="m163.84339 11.335052c-1.08052.329215-2.17374.826073-2.9759 1.622174.38299.113096.85694.06663 1.14898.339286.29206.272692.27887.749358.4183 1.124036.76708-.830034 1.18207-1.977628 1.40862-3.085496z" fill-rule="evenodd" stroke="#fff" stroke-width="1.5"/><path d="m163.84339 11.335052c-1.08052.329215-2.17374.826073-2.9759 1.622174.38299.113096.85694.06663 1.14898.339286.29206.272692.27887.749358.4183 1.124036.76708-.830034 1.18207-1.977628 1.40862-3.085496z" fill-rule="evenodd" stroke="#000" stroke-width=".5"/></g><circle cx="162.61964" cy="12.633092" fill="#fff" r=".375"/></g></svg>