<svg height="32" width="32" xmlns="http://www.w3.org/2000/svg"><path d="m11.33 7v-4.66h-.66v-.68l1.33-.66h.67v6zm8 8v-4.66h-.66v-.68l1.33-.66h.67v6zm8 8v-4.67h-.66v-.67l1.33-.66h.67v6zm0-16v-4.66h-.66v-.68l1.33-.66h.67v6zm-16 16v-4.67h-.66v-.67l1.33-.66h.67v6zm-8 8v-4.67h-.66v-.67l1.33-.66h.67v6zm0-16v-4.66h-.66v-.68l1.33-.66h.67v6zm16 16v-4.67h-.66v-.67l1.33-.66h.67v6zm0-30h1.34q.54 0 .94.4.39.4.39.94v3.32q0 .55-.4.95-.39.4-.93.4h-1.34q-.54 0-.94-.4-.39-.4-.39-.95v-3.31q0-.55.4-.95.4-.39.93-.39zm.02 4.78q.05.27.2.41.18.15.45.15.28 0 .47-.2.2-.2.2-.48v-2.26zm1.31-3.56q-.14-.56-.66-.56-.27 0-.47.2-.2.2-.2.48v2.26zm-17.32-1.22h1.33q.55 0 .94.4.39.4.39.94v3.33q0 .54-.4.94-.38.39-.93.39h-1.33q-.55 0-.95-.4-.39-.37-.39-.92v-3.35q0-.55.4-.95.4-.39.94-.39zm.01 4.78q.05.27.21.41.17.15.44.15.28 0 .47-.2.2-.2.2-.48v-2.26zm1.31-3.56q-.14-.56-.66-.56-.27 0-.47.2-.2.2-.2.48v2.26zm6.68 6.78h1.33q.55 0 .94.4.39.4.39.94v3.32q0 .55-.4.95-.38.4-.93.4h-1.33q-.55 0-.95-.4-.39-.4-.39-.95v-3.32q0-.56.4-.95.4-.39.94-.39zm.01 4.78q.05.27.2.41.18.15.45.15.28 0 .47-.2.2-.2.2-.47v-2.27zm1.31-3.56q-.14-.56-.66-.56-.27 0-.47.2-.2.2-.2.48v2.26zm-9.32 6.78h1.33q.55 0 .94.4.39.4.39.94v3.32q0 .55-.4.95-.38.39-.93.39h-1.33q-.55 0-.95-.4-.39-.38-.39-.94v-3.32q0-.56.4-.95.4-.39.94-.39zm.01 4.78q.05.27.21.41.17.15.44.15.28 0 .47-.2.2-.2.2-.48v-2.26zm1.31-3.56q-.14-.56-.66-.56-.27 0-.47.2-.2.2-.2.48v2.26zm6.68 6.78h1.33q.55 0 .94.4.39.4.39.94v3.32q0 .55-.4.95-.38.39-.93.39h-1.33q-.55 0-.95-.4-.39-.38-.39-.94v-3.32q0-.56.4-.95.4-.39.94-.39zm.01 4.78q.05.27.2.41.18.15.45.15.28 0 .47-.2.2-.2.2-.48v-2.26zm1.31-3.56q-.14-.56-.66-.56-.27 0-.47.2-.2.2-.2.48v2.26zm14.68-1.22h1.33q.54 0 .94.4.39.4.39.94v3.32q0 .55-.4.95-.39.39-.93.39h-1.34q-.54 0-.94-.4-.4-.38-.4-.94v-3.32q0-.56.4-.95.4-.39.95-.39zm.01 4.78q.05.27.2.41.18.15.45.15.28 0 .47-.2.2-.2.2-.48v-2.26zm1.31-3.56q-.14-.56-.66-.56-.27 0-.47.2-.2.2-.2.48v2.26zm-1.32-17.22h1.33q.54 0 .94.4.39.4.39.94v3.32q0 .55-.4.95-.39.4-.93.4h-1.34q-.54 0-.94-.4-.4-.4-.4-.95v-3.32q0-.56.4-.95.4-.39.95-.39zm.01 4.78q.05.27.2.41.18.15.45.15.28 0 .47-.2.2-.2.2-.47v-2.27zm1.31-3.56q-.14-.56-.66-.56-.27 0-.47.2-.2.2-.2.48v2.26zm-9.32 6.78h1.33q.54 0 .94.4.39.4.39.94v3.32q0 .55-.4.95-.39.39-.93.39h-1.34q-.54 0-.94-.4-.39-.38-.39-.94v-3.32q0-.56.4-.95.4-.39.94-.39zm.01 4.78q.05.27.2.41.18.15.45.15.28 0 .47-.2.2-.2.2-.48v-2.26zm1.31-3.56q-.14-.56-.66-.56-.27 0-.47.2-.2.2-.2.48v2.26z" fill="#fff"/></svg>